<?xml version="1.0" encoding="UTF-8"?>
<svg version="1.1" xmlns="http://www.w3.org/2000/svg" width="540" height="462">
<path d="M0 0 C0.63711914 0.11827148 1.27423828 0.23654297 1.93066406 0.35839844 C27.81387875 5.28913202 51.04287189 16.91285484 71 34 C71.7727124 34.65524658 71.7727124 34.65524658 72.56103516 35.32373047 C78.5534962 40.43511698 78.5534962 40.43511698 81 43 C81 43.66 81 44.32 81 45 C81.57234375 45.226875 82.1446875 45.45375 82.734375 45.6875 C85.62129471 47.35992245 87.19470494 49.38140185 89.25 52 C89.95640625 52.886875 90.6628125 53.77375 91.390625 54.6875 C93 57 93 57 93 59 C93.66 59 94.32 59 95 59 C115.2722011 83.60506488 124.47690603 118.51701107 124.3125 149.75 C124.31100952 150.45277069 124.30951904 151.15554138 124.3079834 151.87960815 C124.26735799 162.54665878 123.62387766 172.61758752 121 183 C120.7215625 184.22460938 120.443125 185.44921875 120.15625 186.7109375 C115.49778227 205.86687809 107.33076318 222.90134142 96 239 C95.31421875 239.98742187 94.6284375 240.97484375 93.921875 241.9921875 C89.7428577 247.89993498 89.7428577 247.89993498 88 250 C87.34 250 86.68 250 86 250 C86 250.66 86 251.32 86 252 C85.34 252 84.68 252 84 252 C83.690625 252.804375 83.690625 252.804375 83.375 253.625 C81.46749574 256.91978009 78.95180616 259.59363628 76 262 C75.34 262 74.68 262 74 262 C74 262.66 74 263.32 74 264 C71.64344427 265.96631736 69.28169106 267.80916398 66.8125 269.625 C65.714823 270.43578003 65.714823 270.43578003 64.5949707 271.26293945 C46.34064006 284.60256621 27.04765803 293.88848732 5 299 C4.23816406 299.17789062 3.47632813 299.35578125 2.69140625 299.5390625 C-17.75912117 304.06765029 -40.65067929 304.01360076 -61 299 C-61.8343457 298.79600586 -62.66869141 298.59201172 -63.52832031 298.38183594 C-88.30006226 292.1503505 -110.65637788 280.8895805 -130 264 C-130 263.34 -130 262.68 -130 262 C-130.639375 261.731875 -131.27875 261.46375 -131.9375 261.1875 C-134 260 -134 260 -135 257 C-135.66 257 -136.32 257 -137 257 C-137 256.34 -137 255.68 -137 255 C-137.99 254.67 -138.98 254.34 -140 254 C-140 253.34 -140 252.68 -140 252 C-140.66 252 -141.32 252 -142 252 C-166.82206077 224.50628885 -180.47689471 187.00532103 -180.3125 150.25 C-180.30758545 148.93813721 -180.3026709 147.62627441 -180.29760742 146.2746582 C-179.93346717 115.99873081 -169.63855382 83.23011997 -151 59 C-150.34 59 -149.68 59 -149 59 C-148.7525 58.44828125 -148.505 57.8965625 -148.25 57.328125 C-146.75765526 54.54863293 -144.96327477 52.2185293 -143 49.75 C-142.29875 48.85796875 -141.5975 47.9659375 -140.875 47.046875 C-140.25625 46.37140625 -139.6375 45.6959375 -139 45 C-138.34 45 -137.68 45 -137 45 C-136.75636719 44.42378906 -136.51273438 43.84757812 -136.26171875 43.25390625 C-124.67126763 22.54898272 -90.56549796 8.95378822 -69.1796875 2.8046875 C-46.88685989 -2.83698632 -22.68085736 -4.39473183 0 0 Z " fill="#254359" transform="translate(298,98)"/>
<path d="M0 0 C1.7074998 1.28062485 3.37373596 2.61767557 5 4 C5 4.66 5 5.32 5 6 C5.57234375 6.226875 6.1446875 6.45375 6.734375 6.6875 C9.62129471 8.35992245 11.19470494 10.38140185 13.25 13 C13.95640625 13.886875 14.6628125 14.77375 15.390625 15.6875 C17 18 17 18 17 20 C17.66 20 18.32 20 19 20 C39.2722011 44.60506488 48.47690603 79.51701107 48.3125 110.75 C48.31100952 111.45277069 48.30951904 112.15554138 48.3079834 112.87960815 C48.26735799 123.54665878 47.62387766 133.61758752 45 144 C44.7215625 145.22460938 44.443125 146.44921875 44.15625 147.7109375 C39.49778227 166.86687809 31.33076318 183.90134142 20 200 C19.31421875 200.98742187 18.6284375 201.97484375 17.921875 202.9921875 C13.7428577 208.89993498 13.7428577 208.89993498 12 211 C11.34 211 10.68 211 10 211 C10 211.66 10 212.32 10 213 C9.34 213 8.68 213 8 213 C7.79375 213.53625 7.5875 214.0725 7.375 214.625 C5.46749574 217.91978009 2.95180616 220.59363628 0 223 C-0.66 223 -1.32 223 -2 223 C-2 223.66 -2 224.32 -2 225 C-4.35655573 226.96631736 -6.71830894 228.80916398 -9.1875 230.625 C-10.285177 231.43578003 -10.285177 231.43578003 -11.4050293 232.26293945 C-41.8292998 254.49593286 -78.42270405 267.30840108 -116.26953125 261.53515625 C-119 261 -119 261 -121 260 C-121 259.34 -121 258.68 -121 258 C-121.75925781 258.01160156 -122.51851562 258.02320313 -123.30078125 258.03515625 C-124.79158203 258.04869141 -124.79158203 258.04869141 -126.3125 258.0625 C-127.79169922 258.07990234 -127.79169922 258.07990234 -129.30078125 258.09765625 C-132 258 -132 258 -135 257 C-137.63109975 252.74976194 -138.50569398 248.9430602 -139 244 C-136 247 -136 247 -132 255 C-124.08 255 -116.16 255 -108 255 C-106.865625 252.4425 -105.73125 249.885 -104.5625 247.25 C-101.28057815 239.85874126 -97.96920585 232.48117662 -94.64331055 225.10961914 C-90.83181381 216.64995565 -87.0795781 208.16417134 -83.3215332 199.68066406 C-80.58918675 193.52726289 -77.81805897 187.39790878 -74.9375 181.3125 C-73.02410091 177.26032547 -71.27985059 173.24661804 -69.78125 169.02734375 C-68.7833698 166.43784464 -67.61416269 163.95098226 -66.4375 161.4375 C-63.64452295 155.46039188 -60.99349722 149.43043568 -58.375 143.375 C-53.12082501 131.23496865 -47.75074662 119.14792986 -42.36474609 107.06591797 C-41.14148071 104.31783807 -39.92273051 101.56783962 -38.70703125 98.81640625 C-35.75167029 92.13196022 -32.76499476 85.47554584 -29.625 78.875 C-25.98590528 71.16179233 -22.75268285 63.28999072 -19.55126953 55.38623047 C-18.40102431 52.57487821 -17.21628407 49.78334847 -16 47 C-15.68562988 46.26064209 -15.37125977 45.52128418 -15.04736328 44.75952148 C-14.12109375 42.83984375 -14.12109375 42.83984375 -12 40 C-8.765625 39.09765625 -8.765625 39.09765625 -5.25 39.0625 C-3.49429688 39.01802734 -3.49429688 39.01802734 -1.703125 38.97265625 C-0.81109375 38.98167969 0.0809375 38.99070313 1 39 C0.49339844 37.34677734 0.49339844 37.34677734 -0.0234375 35.66015625 C-3.15293126 25.12719444 -5.0718541 14.94380981 -6 4 C-4.02 3.34 -2.04 2.68 0 2 C0 1.34 0 0.68 0 0 Z " fill="#254359" transform="translate(374,137)"/>
<path d="M0 0 C2 1 2 1 3.32861328 4.72192383 C3.8342492 6.38108873 4.33083582 8.04302752 4.8203125 9.70703125 C5.08383514 10.58397141 5.34735779 11.46091156 5.61886597 12.36442566 C6.17560729 14.22368308 6.72848681 16.08410052 7.27783203 17.94555664 C8.11922865 20.7929689 8.97463251 23.63588627 9.83203125 26.47851562 C10.37063564 28.28360256 10.90842296 30.08893353 11.4453125 31.89453125 C11.70152374 32.74570023 11.95773499 33.5968692 12.22171021 34.47383118 C12.45550385 35.27113144 12.68929749 36.0684317 12.93017578 36.88989258 C13.13732208 37.58858963 13.34446838 38.28728668 13.55789185 39.00715637 C14 41 14 41 14 45 C13.16597656 44.90074219 12.33195313 44.80148438 11.47265625 44.69921875 C7.24475445 44.68468988 4.78962251 45.05178369 1 47 C-2.90427661 52.39089972 -4.82317417 59.07665524 -7.01220703 65.30029297 C-8.38933258 69.06407307 -10.06254518 72.64801757 -11.8125 76.25 C-14.29185012 81.46581802 -16.66766611 86.7174271 -19 92 C-19.57251612 93.28924044 -20.14541813 94.57830961 -20.71875 95.8671875 C-21.65008699 97.96256455 -22.58129373 100.05799913 -23.51220703 102.15356445 C-25.61719665 106.89144226 -27.72522049 111.62795196 -29.8359375 116.36328125 C-35.18818148 128.3788952 -40.51683809 140.40235015 -45.70263672 152.4909668 C-47.97336783 157.75581769 -50.40224812 162.88865667 -53 168 C-54.38603394 171.13364195 -55.70705323 174.28411356 -57.00463867 177.45507812 C-60.16184587 185.12513701 -63.52621253 192.69149547 -66.96066284 200.23995972 C-68.51844907 203.66453132 -70.06979593 207.09201666 -71.62109375 210.51953125 C-71.92106766 211.18211441 -72.22104156 211.84469757 -72.53010559 212.52735901 C-76.05327403 220.31685992 -79.47993632 228.14607229 -82.86035156 235.99853516 C-86.65653756 244.81155238 -90.61401402 253.46088006 -95 262 C-98.93725326 262.11594584 -102.87406923 262.18716464 -106.8125 262.25 C-107.93205078 262.28351563 -109.05160156 262.31703125 -110.20507812 262.3515625 C-111.27822266 262.36445313 -112.35136719 262.37734375 -113.45703125 262.390625 C-114.44678955 262.41157227 -115.43654785 262.43251953 -116.45629883 262.45410156 C-119 262 -119 262 -120.75708008 260.14916992 C-125.17568144 252.50883447 -128.35393185 244.22931758 -131.453125 235.98828125 C-133.52430786 230.57234 -135.77166586 225.22766817 -138 219.875 C-138.41540039 218.87364014 -138.83080078 217.87228027 -139.25878906 216.84057617 C-141.24643933 212.07905128 -143.27909137 207.34870842 -145.43359375 202.66015625 C-148.17885404 196.6712752 -150.71886745 190.60025242 -153.24887085 184.51828003 C-156.93905825 175.64790607 -160.64718957 166.7857083 -164.4453125 157.9609375 C-164.72030075 157.32181931 -164.995289 156.68270111 -165.27861023 156.0242157 C-166.58756144 152.98458321 -167.90034192 149.94668958 -169.21704102 146.91040039 C-169.68553467 145.8249292 -170.15402832 144.73945801 -170.63671875 143.62109375 C-171.04623779 142.6767749 -171.45575684 141.73245605 -171.87768555 140.75952148 C-173.04549812 137.88813025 -174.01976157 134.94071529 -175 132 C-166.75 132 -158.5 132 -150 132 C-144.61521177 142.64434883 -139.60709427 153.24776986 -135.3828125 164.40625 C-131.69513678 173.99004001 -127.75882818 183.47218557 -123.44921875 192.79296875 C-121.38648733 197.35766549 -119.41209835 201.95911237 -117.4375 206.5625 C-117.06125488 207.43745117 -116.68500977 208.31240234 -116.29736328 209.21386719 C-115.18838365 211.80521371 -114.09077654 214.40094112 -113 217 C-112.42209717 218.37260986 -112.42209717 218.37260986 -111.83251953 219.77294922 C-111.46626465 220.66127441 -111.10000977 221.54959961 -110.72265625 222.46484375 C-110.22584351 223.66355103 -110.22584351 223.66355103 -109.71899414 224.88647461 C-109 227 -109 227 -109 230 C-105.76520258 228.38260129 -105.0841389 224.95193335 -103.75 221.75 C-101.6583125 216.80065494 -99.50208197 211.8931019 -97.23828125 207.01953125 C-94.90062667 201.98026276 -92.61684653 196.92069605 -90.37109375 191.83984375 C-90.05625031 191.12757629 -89.74140686 190.41530884 -89.41702271 189.68145752 C-88.76222487 188.19945689 -88.107554 186.71740016 -87.45300293 185.23529053 C-80.64915747 169.84014869 -73.67226905 154.53904197 -66.53808594 139.29394531 C-61.98691257 129.54721022 -57.49877055 119.77100332 -53 110 C-52.51756836 108.95263672 -52.03513672 107.90527344 -51.53808594 106.82617188 C-46.55424359 96.00047532 -41.60103979 85.16450043 -36.78955078 74.26098633 C-34.09792818 68.17646204 -31.29029714 62.15088395 -28.4453125 56.13671875 C-27.20747675 53.45028063 -26.0660167 50.75818883 -25 48 C-24.34 48 -23.68 48 -23 48 C-23 47.34 -23 46.68 -23 46 C-28.28 46 -33.56 46 -39 46 C-38.01 44.35 -37.02 42.7 -36 41 C-35.34 41 -34.68 41 -34 41 C-33.67708984 40.21496094 -33.67708984 40.21496094 -33.34765625 39.4140625 C-31.46612461 36.0436667 -28.96630139 33.26701571 -26.4375 30.375 C-25.89955811 29.75326904 -25.36161621 29.13153809 -24.80737305 28.4909668 C-20.98871825 24.09137268 -17.08986874 19.76825429 -13.171875 15.45703125 C-9.95059252 11.8128106 -6.89811731 8.03752132 -3.84765625 4.25 C-2 2 -2 2 0 0 Z " fill="#5DBA49" transform="translate(361,131)"/>
<path d="M0 0 C8.25 0 16.5 0 25 0 C30.38334979 10.64150541 35.3929021 21.24172542 39.61328125 32.3984375 C41.20768138 36.53938657 42.87322596 40.64702876 44.5625 44.75 C44.86075684 45.47598389 45.15901367 46.20196777 45.46630859 46.94995117 C47.06575907 50.81920352 48.73314488 54.64090129 50.5 58.4375 C50.995 59.613125 51.49 60.78875 52 62 C51.505 62.99 51.505 62.99 51 64 C50.01 63.505 50.01 63.505 49 63 C48.55313806 61.38442222 48.11116111 59.76736304 47.69140625 58.14453125 C46.89940344 55.68798015 45.81833909 53.53814559 44.625 51.25 C42.75221636 47.6472256 41.25742716 44.08978811 39.9375 40.25 C38.84330001 37.09483698 37.92312549 34.88949289 36 32.125 C33.3954115 28.05533046 32.34701049 23.88427635 31.0078125 19.265625 C29.24512825 13.55398145 26.66683655 8.33367309 24 3 C17.07 2.67 10.14 2.34 3 2 C3.804375 3.711875 4.60875 5.42375 5.4375 7.1875 C7.1354471 10.80107972 8.37183502 14.05050296 9 18 C9.66 18 10.32 18 11 18 C11.20625 19.0725 11.4125 20.145 11.625 21.25 C12.57141827 25.10376071 14.10705798 28.35946123 15.9375 31.875 C19.32163364 38.39564775 21.2432798 44.9086524 23 52 C23.66 52 24.32 52 25 52 C25.66 55.3 26.32 58.6 27 62 C24.75975901 59.75975901 24.03151998 58.01816682 22.8203125 55.1015625 C22.39161865 54.07772461 21.9629248 53.05388672 21.52124023 51.99902344 C21.06048096 50.8855957 20.59972168 49.77216797 20.125 48.625 C19.14010939 46.26790039 18.15440258 43.9111417 17.16796875 41.5546875 C16.91243729 40.94282593 16.65690582 40.33096436 16.39363098 39.70056152 C14.5148332 35.20780165 12.60404838 30.72954502 10.67578125 26.2578125 C10.40393005 25.62690704 10.13207886 24.99600159 9.85198975 24.34597778 C8.5324112 21.2849882 7.21017023 18.2251893 5.88525391 15.16650391 C5.16668213 13.4985376 5.16668213 13.4985376 4.43359375 11.796875 C3.80022095 10.33266113 3.80022095 10.33266113 3.15405273 8.83886719 C1.97598218 5.9409183 0.98924001 2.96772003 0 0 Z " fill="#5FA760" transform="translate(186,263)"/>
<path d="M0 0 C0.99 0.495 0.99 0.495 2 1 C2 1.99 2 2.98 2 4 C2.66 4 3.32 4 4 4 C4.32613281 4.86882812 4.65226563 5.73765625 4.98828125 6.6328125 C5.64376953 8.36144531 5.64376953 8.36144531 6.3125 10.125 C6.74175781 11.26195312 7.17101562 12.39890625 7.61328125 13.5703125 C8.93790312 17.00879511 8.93790312 17.00879511 10.66796875 20.1796875 C12 23 12 23 12 27 C20.25 27.33 28.5 27.66 37 28 C37 25.36 37 22.72 37 20 C37.875 17.0625 37.875 17.0625 39 15 C41 14 41 14 44 13 C43.59522444 14.5240413 43.17542538 16.04409347 42.75 17.5625 C42.51796875 18.40941406 42.2859375 19.25632812 42.046875 20.12890625 C40.74015039 23.71264726 38.95789396 26.72740452 37 30 C33.06274674 30.11594584 29.12593077 30.18716464 25.1875 30.25 C24.06794922 30.28351563 22.94839844 30.31703125 21.79492188 30.3515625 C20.72177734 30.36445313 19.64863281 30.37734375 18.54296875 30.390625 C17.0583313 30.4220459 17.0583313 30.4220459 15.54370117 30.45410156 C13 30 13 30 11.24511719 28.15356445 C0 8.70392157 0 8.70392157 0 0 Z " fill="#5FA860" transform="translate(229,363)"/>
<path d="M0 0 C4.27070558 -0.08692074 8.54118458 -0.14036515 12.8125 -0.1875 C14.63491211 -0.22520508 14.63491211 -0.22520508 16.49414062 -0.26367188 C18.23920898 -0.27817383 18.23920898 -0.27817383 20.01953125 -0.29296875 C21.09307861 -0.3086792 22.16662598 -0.32438965 23.27270508 -0.34057617 C26 0 26 0 27.82543945 1.40112305 C29.17939706 3.24420523 29.75254939 4.80121345 30.375 7 C31.82477452 11.7369638 33.83735982 16.07460282 36.01171875 20.51953125 C37 23 37 23 37 27 C39.475 27.99 39.475 27.99 42 29 C41.34 30.98 40.68 32.96 40 35 C37.58456125 32.58456125 36.78000445 30.41380306 35.46875 27.2578125 C34.98792969 26.10925781 34.50710937 24.96070313 34.01171875 23.77734375 C33.51285156 22.57207031 33.01398438 21.36679687 32.5 20.125 C31.51152251 17.75214319 30.52198308 15.37972842 29.53125 13.0078125 C29.09361328 11.95223145 28.65597656 10.89665039 28.20507812 9.80908203 C27.2160835 7.5036987 26.12186476 5.24372951 25 3 C16.75 2.67 8.5 2.34 0 2 C0 1.34 0 0.68 0 0 Z " fill="#1F5147" transform="translate(186,261)"/>
<path d="M0 0 C0.66 0 1.32 0 2 0 C0.52284607 4.71665488 -1.34015729 9.19094613 -3.375 13.6875 C-4.08506323 15.2667348 -4.79466704 16.84617621 -5.50390625 18.42578125 C-5.89594238 19.29799316 -6.28797852 20.17020508 -6.69189453 21.06884766 C-8.17276622 24.3871279 -9.6321343 27.71445011 -11.08984375 31.04296875 C-11.62757225 32.2667685 -12.16549586 33.49048254 -12.70361328 34.71411133 C-13.76432404 37.12767093 -14.82137764 39.54284157 -15.87451172 41.9597168 C-16.36580566 43.07386963 -16.85709961 44.18802246 -17.36328125 45.3359375 C-17.79938721 46.33157715 -18.23549316 47.3272168 -18.68481445 48.35302734 C-19.91404808 50.82701119 -21.26409389 52.8600331 -23 55 C-23 53.35 -23 51.7 -23 50 C-22.34 50 -21.68 50 -21 50 C-20.87625 49.29875 -20.7525 48.5975 -20.625 47.875 C-19.96161655 44.82343613 -19.02788045 41.94659062 -18 39 C-17.34 39 -16.68 39 -16 39 C-15.9175 38.21625 -15.835 37.4325 -15.75 36.625 C-14.92470584 32.6360782 -13.54065843 29.19572347 -11.9375 25.46484375 C-10.99389862 22.98395845 -10.4469505 20.611867 -10 18 C-9.01 18 -8.02 18 -7 18 C-6.731875 17.030625 -6.46375 16.06125 -6.1875 15.0625 C-4.93371745 10.66073104 -3.4735493 6.33223494 -2 2 C-1.34 2 -0.68 2 0 2 C0 1.34 0 0.68 0 0 Z " fill="#61AB5E" transform="translate(342,217)"/>
<path d="M0 0 C0.66 0.33 1.32 0.66 2 1 C-3.19923444 13.07071888 -8.39965752 25.12956383 -14.04785156 36.99853516 C-15.17893772 39.37613626 -16.30434728 41.75639282 -17.4296875 44.13671875 C-19.61609171 48.75957146 -21.80666091 53.38043399 -24 58 C-24.78896033 55.70041456 -25.12486746 54.40272023 -24.39501953 52.04882812 C-23.89397705 51.05012695 -23.89397705 51.05012695 -23.3828125 50.03125 C-23.02316406 49.29519531 -22.66351563 48.55914062 -22.29296875 47.80078125 C-21.90753906 47.04152344 -21.52210938 46.28226563 -21.125 45.5 C-20.37442329 43.99116149 -19.62691673 42.48079098 -18.8828125 40.96875 C-18.54652832 40.30294922 -18.21024414 39.63714844 -17.86376953 38.95117188 C-16.99309055 36.98439223 -16.45779591 35.09779273 -16 33 C-15.34 33 -14.68 33 -14 33 C-13.80664062 32.33613281 -13.61328125 31.67226562 -13.4140625 30.98828125 C-10.82776801 22.21792619 -10.82776801 22.21792619 -9 18 C-8.34 18 -7.68 18 -7 18 C-6.89816406 17.31550781 -6.79632813 16.63101563 -6.69140625 15.92578125 C-5.86230008 12.41730374 -4.4827768 9.44244474 -2.9375 6.1875 C-2.11572266 4.44533203 -2.11572266 4.44533203 -1.27734375 2.66796875 C-0.64505859 1.34732422 -0.64505859 1.34732422 0 0 Z " fill="#1F5246" transform="translate(324,202)"/>
<path d="M0 0 C1.5613959 2.93270882 2.66538899 5.82068273 3.625 9 C4.01558594 10.2684375 4.01558594 10.2684375 4.4140625 11.5625 C5 14 5 14 5 18 C4.16597656 17.90074219 3.33195312 17.80148438 2.47265625 17.69921875 C-1.77418847 17.68462478 -4.19805278 18.02640493 -8 20 C-11.88395446 25.44388171 -13.87533294 32.04903726 -16.03564453 38.32080078 C-17.47259803 42.31298501 -19.21212803 46.15462341 -21 50 C-21.33 50 -21.66 50 -22 50 C-22 47.69 -22 45.38 -22 43 C-21.34 43 -20.68 43 -20 43 C-19.01 39.37 -18.02 35.74 -17 32 C-16.34 32 -15.68 32 -15 32 C-14.81824219 31.41992188 -14.63648438 30.83984375 -14.44921875 30.2421875 C-13.92743201 28.62063485 -13.38326923 27.00616077 -12.8203125 25.3984375 C-12.15638464 23.4572389 -11.5933223 21.48173658 -11.0625 19.5 C-9 17 -9 17 -6.140625 16.4140625 C-3.08251222 16.14845177 -0.06885233 16.00951582 3 16 C2.67 13.36 2.34 10.72 2 8 C1.34 8 0.68 8 0 8 C0 5.36 0 2.72 0 0 Z " fill="#60A85E" transform="translate(370,158)"/>
<path d="M0 0 C1.45953331 4.62010544 0.57364136 8.49670716 -1 13 C-2.9375 15.125 -2.9375 15.125 -5 17 C-6.14287818 19.33544672 -7.08911618 21.57377489 -8 24 C-8.83208527 26.18797504 -9.66552735 28.37543437 -10.5 30.5625 C-10.9021875 31.63628906 -11.304375 32.71007812 -11.71875 33.81640625 C-12.98973622 36.97449701 -14.43651365 39.97756273 -16 43 C-16.66 42.67 -17.32 42.34 -18 42 C-17.74476563 41.36578125 -17.48953125 40.7315625 -17.2265625 40.078125 C-16.2526105 37.63393972 -15.29159883 35.18571541 -14.3359375 32.734375 C-9.97048106 21.60559848 -5.23430268 10.74702571 0 0 Z " fill="#23554A" transform="translate(326,257)"/>
<path d="M0 0 C0.33 0 0.66 0 1 0 C1.31777531 4.66070456 0.85148558 6.40924038 -2 10 C-2.72204279 11.90356734 -3.43960746 13.8092509 -4.11328125 15.73046875 C-5.09485486 18.24277829 -6.2990904 20.55517632 -7.5625 22.9375 C-9.29384298 26.26700573 -10.33524721 29.11294713 -10.9375 32.8125 C-11.55517491 36.26169454 -12.41844896 37.81650426 -15.125 40.0625 C-16.07375 40.701875 -17.0225 41.34125 -18 42 C-15.30797874 32.93376748 -11.26072847 24.50710653 -7.3125 15.9375 C-6.60309389 14.388865 -5.89410588 12.84003839 -5.18554688 11.29101562 C-3.46184723 7.52511586 -1.73249815 3.76185963 0 0 Z " fill="#24564B" transform="translate(296,325)"/>
<path d="M0 0 C2.6306216 3.94593239 4.29112953 8.13888754 6.125 12.5 C6.49753906 13.36753906 6.87007812 14.23507812 7.25390625 15.12890625 C7.60582031 15.96292969 7.95773438 16.79695313 8.3203125 17.65625 C8.64273926 18.41744141 8.96516602 19.17863281 9.29736328 19.96289062 C10 22 10 22 10 25 C13.39274407 23.30362797 14.11558566 19.37125165 15.5 16 C18.72972973 8.13513514 18.72972973 8.13513514 21 7 C20.21824485 11.84688192 18.60155722 16.3766367 17 21 C16.34 21 15.68 21 15 21 C14.01 23.475 14.01 23.475 13 26 C10.625 25.6875 10.625 25.6875 8 25 C5.8480563 21.77208445 5.79913557 20.71599191 6 17 C5.34 17 4.68 17 4 17 C2.19003784 11.34244531 0.64270983 5.9129304 0 0 Z " fill="#60AD5B" transform="translate(242,336)"/>
<path d="M0 0 C3.69515758 2.46343839 4.47351713 5.02151431 6 9 C6.6035635 10.5228919 7.20917867 12.04497163 7.81640625 13.56640625 C8.15430176 14.41605957 8.49219727 15.26571289 8.84033203 16.14111328 C11.60248726 22.9505528 14.54062739 29.68900118 17.44335938 36.43945312 C17.90419922 37.52033203 18.36503906 38.60121094 18.83984375 39.71484375 C19.25613037 40.68542725 19.67241699 41.65601074 20.10131836 42.65600586 C21 45 21 45 21 47 C20.34 47 19.68 47 19 47 C19 46.01 19 45.02 19 44 C18.34 44 17.68 44 17 44 C17 42.35 17 40.7 17 39 C16.34 39 15.68 39 15 39 C15 37.35 15 35.7 15 34 C14.34 34 13.68 34 13 34 C12.43732422 32.47632813 12.43732422 32.47632813 11.86328125 30.921875 C9.03093861 23.29147327 6.11964139 15.72898358 2.8828125 8.2578125 C2 6 2 6 2 4 C1.34 4 0.68 4 0 4 C0 2.68 0 1.36 0 0 Z " fill="#225646" transform="translate(185,264)"/>
<path d="M0 0 C1.45599609 0.45246094 1.45599609 0.45246094 2.94140625 0.9140625 C8.48547718 2.45370705 13.37571278 2.77245594 19.10546875 2.546875 C21.50390625 2.5390625 21.50390625 2.5390625 23.50390625 3.5390625 C23.50390625 4.1990625 23.50390625 4.8590625 23.50390625 5.5390625 C30.43390625 6.0340625 30.43390625 6.0340625 37.50390625 6.5390625 C37.50390625 6.8690625 37.50390625 7.1990625 37.50390625 7.5390625 C22.7830218 8.17807195 8.56680224 5.9066139 -5.49609375 1.5390625 C-2.49609375 -0.4609375 -2.49609375 -0.4609375 0 0 Z " fill="#243241" transform="translate(231.49609375,392.4609375)"/>
<path d="M0 0 C2.57014426 3.09451278 3.90069231 6.03538869 5.25 9.8125 C7.14110687 14.91275791 9.26472974 19.79539388 11.625 24.6875 C14.33226655 30.32492487 16.49838534 35.92203589 18 42 C15.7158631 39.79721592 14.20511218 37.96642998 13 35 C13 34.01 13 33.02 13 32 C12.34 32 11.68 32 11 32 C9.31365155 28.22579156 7.80821742 24.50499031 6.5625 20.5625 C5.5795158 17.493925 4.41204897 14.76744576 2.875 11.9375 C0.77575051 7.95533589 0.31930652 4.47029134 0 0 Z " fill="#255847" transform="translate(208,316)"/>
<path d="M0 0 C5.61 0.33 11.22 0.66 17 1 C17 1.66 17 2.32 17 3 C16.34 3 15.68 3 15 3 C14.90847656 3.66386719 14.81695312 4.32773438 14.72265625 5.01171875 C13.78636721 8.88340045 12.16518257 12.23739449 10.4375 15.8125 C9.9434668 16.85180664 9.9434668 16.85180664 9.43945312 17.91210938 C8.63127749 19.61044948 7.81631623 21.30555769 7 23 C6.67 23 6.34 23 6 23 C6 21.02 6 19.04 6 17 C6.66 16.67 7.32 16.34 8 16 C8.83586755 14.28677468 8.83586755 14.28677468 9.5 12.25 C10.59793831 9.12326265 11.76558104 6.08604741 13 3 C9.04 3 5.08 3 1 3 C0.67 2.01 0.34 1.02 0 0 Z " fill="#255A47" transform="translate(321,176)"/>
<path d="M0 0 C6.40110236 3.20055118 9.82804062 18.49336423 12 25 C12 25.99 12 26.98 12 28 C12.66 28 13.32 28 14 28 C14 29.32 14 30.64 14 32 C14.66 32 15.32 32 16 32 C16 33.98 16 35.96 16 38 C13.8108669 35.8108669 13.14840374 34.23525475 12.01171875 31.37890625 C11.63716553 30.44796143 11.2626123 29.5170166 10.87670898 28.55786133 C10.48427002 27.56939209 10.09183105 26.58092285 9.6875 25.5625 C6.88770147 18.5902982 4.0629289 11.68501534 0.77734375 4.92578125 C0 3 0 3 0 0 Z " fill="#63AD5C" transform="translate(213,325)"/>
<path d="M0 0 C1.5 1.1875 1.5 1.1875 3 3 C3.1875 5.6875 3.1875 5.6875 3 8 C-2.10334017 9.905247 -6.46342706 11.42589023 -12 11 C-13.49140021 14.62197194 -14.7874262 18.27566618 -16 22 C-16.66 22 -17.32 22 -18 22 C-17.4153999 19.61288292 -16.76215292 17.33155658 -16 15 C-15.71962891 14.01580078 -15.71962891 14.01580078 -15.43359375 13.01171875 C-14.53359482 10.73580522 -13.9088295 9.56338008 -12 8 C-7.65931214 7.09098358 -3.42554556 6.95523292 1 7 C0.67 4.69 0.34 2.38 0 0 Z " fill="#235349" transform="translate(374,169)"/>
<path d="M0 0 C0.99 0.66 1.98 1.32 3 2 C-4.18227663 11.13935201 -12.00576534 19.57364454 -20 28 C-20 25 -20 25 -19 22 C-18.01 22 -17.02 22 -16 22 C-15.938125 21.443125 -15.87625 20.88625 -15.8125 20.3125 C-14.6519231 17.00931958 -12.59786554 15.28105267 -10 13 C-9.34 13 -8.68 13 -8 13 C-7.67 12.01 -7.34 11.02 -7 10 C-6.34 10 -5.68 10 -5 10 C-4.9175 9.21625 -4.835 8.4325 -4.75 7.625 C-4 5 -4 5 -1.9375 3.6875 C-0.9784375 3.3471875 -0.9784375 3.3471875 0 3 C0 2.01 0 1.02 0 0 Z " fill="#205149" transform="translate(351,138)"/>
<path d="M0 0 C0.66 0 1.32 0 2 0 C3.6876349 2.53145235 4.44927957 4.06820966 5.3125 6.875 C6.63221716 10.95534998 8.06147326 14.98254608 9.5625 19 C9.97628906 20.11375 10.39007813 21.2275 10.81640625 22.375 C11.72393561 25.12511423 11.72393561 25.12511423 14 26 C14.66 24.68 15.32 23.36 16 22 C17 25 17 25 15.5625 28.1875 C15.046875 29.115625 14.53125 30.04375 14 31 C13.34 31 12.68 31 12 31 C10.28651265 26.90844133 8.57763792 22.81499689 6.87304688 18.71972656 C6.2922869 17.32629239 5.71026074 15.93338525 5.12695312 14.54101562 C4.28964617 12.54173168 3.45688311 10.54060824 2.625 8.5390625 C2.12226563 7.33459473 1.61953125 6.13012695 1.1015625 4.88916016 C0 2 0 2 0 0 Z " fill="#215746" transform="translate(240,330)"/>
<path d="M0 0 C1.20628008 2.33214148 2.1654738 4.49642139 3 7 C2.01 8.485 2.01 8.485 1 10 C0.34 10 -0.32 10 -1 10 C-1.33 10.99 -1.66 11.98 -2 13 C-3.00531828 15.23620658 -4.02808308 17.46460406 -5.0625 19.6875 C-5.61035156 20.86699219 -6.15820312 22.04648437 -6.72265625 23.26171875 C-7.14417969 24.16535156 -7.56570313 25.06898438 -8 26 C-8.66 26 -9.32 26 -10 26 C-9.48304995 21.8643996 -7.94137096 18.75516888 -6.046875 15.1171875 C-4.42737043 11.84192079 -3.23705518 8.43301111 -2 5 C-1.33933281 3.33094605 -0.67561748 1.6630584 0 0 Z " fill="#22514B" transform="translate(307,299)"/>
<path d="M0 0 C0.99 0.33 1.98 0.66 3 1 C3 2.98 3 4.96 3 7 C3.66 7 4.32 7 5 7 C5.83739781 9.1234016 6.66980283 11.2487728 7.5 13.375 C7.9640625 14.55835938 8.428125 15.74171875 8.90625 16.9609375 C10 20 10 20 10 22 C10.66 22 11.32 22 12 22 C12.33 25.3 12.66 28.6 13 32 C8.51696555 25.27544833 5.72430658 17.46714181 2.6875 10 C2.42098633 9.35321289 2.15447266 8.70642578 1.87988281 8.04003906 C0.73737912 5.1920371 0 3.10015023 0 0 Z " fill="#205247" transform="translate(227,298)"/>
<path d="M0 0 C2 1 2 1 3.32421875 4.45703125 C3.78685205 5.90626007 4.24091771 7.35824486 4.6875 8.8125 C4.92533203 9.53759766 5.16316406 10.26269531 5.40820312 11.00976562 C6.58020538 14.76635936 7.18998829 17.2477612 6 21 C3.49171464 19.09645193 2.99864995 17.99420274 2.26953125 14.86328125 C2.11871094 13.69152344 1.96789062 12.51976562 1.8125 11.3125 C1.65394531 10.13300781 1.49539063 8.95351562 1.33203125 7.73828125 C1.22246094 6.83464844 1.11289062 5.93101562 1 5 C0.4225 5.28875 -0.155 5.5775 -0.75 5.875 C-3.875 7.4375 -3.875 7.4375 -7 9 C-6.02180976 7.68677212 -5.0424189 6.37443848 -4.0625 5.0625 C-3.51722656 4.33160156 -2.97195313 3.60070312 -2.41015625 2.84765625 C-1 1 -1 1 0 0 Z " fill="#60AE5B" transform="translate(361,131)"/>
<path d="M0 0 C1.35985796 4.07957389 -0.24967262 6.23879756 -2.0625 9.875 C-2.71134065 11.21725311 -3.3597699 12.55970516 -4.0078125 13.90234375 C-4.33942383 14.58151855 -4.67103516 15.26069336 -5.01269531 15.96044922 C-6.53220931 19.09942547 -7.9831304 22.26780932 -9.4375 25.4375 C-9.93121094 26.50871094 -10.42492187 27.57992188 -10.93359375 28.68359375 C-11.28550781 29.44800781 -11.63742187 30.21242188 -12 31 C-12.33 31 -12.66 31 -13 31 C-13.22036864 27.14354879 -12.60355101 24.50776784 -11 21 C-10.34 21 -9.68 21 -9 21 C-8.34 18.03 -7.68 15.06 -7 12 C-6.34 12 -5.68 12 -5 12 C-4.9175 11.319375 -4.835 10.63875 -4.75 9.9375 C-3.77667472 6.1253093 -2.04192545 3.35929671 0 0 Z " fill="#215248" transform="translate(298,260)"/>
<path d="M0 0 C0.99 0.33 1.98 0.66 3 1 C-0.59589422 5.09452489 -4.91552256 7.58705754 -9.5625 10.3125 C-10.33013672 10.77978516 -11.09777344 11.24707031 -11.88867188 11.72851562 C-12.62794922 12.16486328 -13.36722656 12.60121094 -14.12890625 13.05078125 C-15.13546265 13.64886597 -15.13546265 13.64886597 -16.16235352 14.2590332 C-18 15 -18 15 -21 14 C-20.01 13.34 -19.02 12.68 -18 12 C-17.5875 11.525625 -17.175 11.05125 -16.75 10.5625 C-14.6866144 8.72019143 -12.52253149 7.9663871 -9.97265625 6.96484375 C-6.90229622 5.4631033 -4.4039131 3.299287 -1.796875 1.109375 C-1.20390625 0.74328125 -0.6109375 0.3771875 0 0 Z " fill="#24333F" transform="translate(359,368)"/>
<path d="M0 0 C0.33 0 0.66 0 1 0 C1.25055928 6.38926174 1.25055928 6.38926174 0 9.4375 C-1.01238318 12.0317319 -1.05292248 13.34254412 -0.9375 16.0625 C-1 20 -1 20 -2.375 22.5 C-4 24 -4 24 -6 24 C-5.39435922 19.07916869 -4.40464226 14.5216524 -3 9.75 C-2.649375 8.54859375 -2.29875 7.3471875 -1.9375 6.109375 C-1.32077764 4.06391252 -0.67559331 2.02677994 0 0 Z " fill="#263749" transform="translate(127,195)"/>
<path d="M0 0 C3 3 3 3 7 11 C15.25 11 23.5 11 32 11 C32 11.66 32 12.32 32 13 C22.76 13 13.52 13 4 13 C1.49183541 7.98367082 0.53303839 5.33038387 0 0 Z " fill="#1F5342" transform="translate(235,381)"/>
<path d="M0 0 C0 3.69840628 -0.82866944 4.31415433 -3.25 7 C-4.15492188 8.0209375 -4.15492188 8.0209375 -5.078125 9.0625 C-8.53644887 12.54894032 -11.08780277 14.31775038 -16 15 C-11.30217584 9.06590633 -6.01350104 4.57548992 0 0 Z " fill="#22323F" transform="translate(177,127)"/>
<path d="M0 0 C0.66 0 1.32 0 2 0 C0.34643078 3.58273331 -1.67980703 6.80973467 -4 10 C-4.66 10 -5.32 10 -6 10 C-6 10.66 -6 11.32 -6 12 C-6.66 12 -7.32 12 -8 12 C-8.268125 12.61875 -8.53625 13.2375 -8.8125 13.875 C-10 16 -10 16 -13 18 C-12.67 16.35 -12.34 14.7 -12 13 C-11.01 13 -10.02 13 -9 13 C-9 12.01 -9 11.02 -9 10 C-8.34 10 -7.68 10 -7 10 C-6.814375 8.7934375 -6.814375 8.7934375 -6.625 7.5625 C-6.41875 6.716875 -6.2125 5.87125 -6 5 C-4.66666667 4.33333333 -3.33333333 3.66666667 -2 3 C-1.67 2.34 -1.34 1.68 -1 1 C-0.67 0.67 -0.34 0.34 0 0 Z " fill="#21323D" transform="translate(390,338)"/>
<path d="M0 0 C0.66 0.99 1.32 1.98 2 3 C4.60035351 3.32695075 4.60035351 3.32695075 7.5 3.125 C12.82926829 2.91463415 12.82926829 2.91463415 15 4 C14.67 5.98 14.34 7.96 14 10 C13.34 10 12.68 10 12 10 C11.67 11.32 11.34 12.64 11 14 C10.34 14 9.68 14 9 14 C9.66 11.69 10.32 9.38 11 7 C11.66 7 12.32 7 13 7 C13 6.34 13 5.68 13 5 C7.72 5 2.44 5 -3 5 C-2.01 3.35 -1.02 1.7 0 0 Z " fill="#5FB058" transform="translate(325,172)"/>
<path d="M0 0 C1.37724797 4.13174392 0.06802779 5.75562783 -1.6875 9.6875 C-1.96352051 10.31092285 -2.23954102 10.9343457 -2.52392578 11.57666016 C-4.5523623 16.12087716 -6.70453124 20.585637 -9 25 C-10.31538327 20.84228506 -9.34433068 18.1120703 -8 14 C-7.34 14 -6.68 14 -6 14 C-5.34 11.36 -4.68 8.72 -4 6 C-3.34 6 -2.68 6 -2 6 C-2 4.35 -2 2.7 -2 1 C-1.34 0.67 -0.68 0.34 0 0 Z " fill="#5FAA5C" transform="translate(315,279)"/>
<path d="M0 0 C2.375 0.6875 2.375 0.6875 5 2 C6.3125 4.625 6.3125 4.625 7 7 C7.66 7 8.32 7 9 7 C9.12375 7.969375 9.2475 8.93875 9.375 9.9375 C9.58125 10.948125 9.7875 11.95875 10 13 C10.66 13.33 11.32 13.66 12 14 C11.01 14.66 10.02 15.32 9 16 C7.49734474 13.5224077 5.99777081 11.04304235 4.5 8.5625 C4.07074219 7.85544922 3.64148438 7.14839844 3.19921875 6.41992188 C0 1.11328125 0 1.11328125 0 0 Z " fill="#233544" transform="translate(135,318)"/>
<path d="M0 0 C1.16835309 3.50505927 0.75193262 4.66433282 -0.3125 8.125 C-0.57675781 9.01445312 -0.84101563 9.90390625 -1.11328125 10.8203125 C-2 13 -2 13 -4 14 C-4 15.98 -4 17.96 -4 20 C-4.99 20 -5.98 20 -7 20 C-7.66 21.32 -8.32 22.64 -9 24 C-10 22 -10 22 -9.1796875 19.53125 C-6.32791709 12.90557984 -3.3279089 6.40091414 0 0 Z " fill="#5FA960" transform="translate(305,248)"/>
<path d="M0 0 C0.66666667 2.66666667 1.33333333 5.33333333 2 8 C1.34 8 0.68 8 0 8 C-0.33 8.99 -0.66 9.98 -1 11 C-1.66 11 -2.32 11 -3 11 C-3.20496094 11.62648437 -3.40992188 12.25296875 -3.62109375 12.8984375 C-3.89050781 13.71570313 -4.15992188 14.53296875 -4.4375 15.375 C-4.70433594 16.18710938 -4.97117187 16.99921875 -5.24609375 17.8359375 C-6 20 -6 20 -7 22 C-7.66 22 -8.32 22 -9 22 C-6.66062389 14.33204498 -3.45231194 7.22862726 0 0 Z " fill="#5FAD5A" transform="translate(333,186)"/>
<path d="M0 0 C0.33 0 0.66 0 1 0 C0.7066696 6.46793536 -0.4824191 10.5637386 -4 16 C-4.6802367 17.32646156 -5.35492261 18.65608877 -6 20 C-6.66 20 -7.32 20 -8 20 C-6.54884678 15.42111848 -4.79418096 11.02350565 -2.875 6.625 C-2.59785156 5.98433594 -2.32070313 5.34367187 -2.03515625 4.68359375 C-1.35899615 3.12143075 -0.67981293 1.56057685 0 0 Z " fill="#60A95D" transform="translate(283,295)"/>
<path d="M0 0 C0.33 0 0.66 0 1 0 C1.33 2.64 1.66 5.28 2 8 C1.01 7.67 0.02 7.34 -1 7 C-1.28875 8.051875 -1.5775 9.10375 -1.875 10.1875 C-2.77225193 13.22818711 -3.76423419 16.08712344 -5 19 C-5.66 18.67 -6.32 18.34 -7 18 C-5.26375242 11.5811453 -3.14819255 5.86215164 0 0 Z " fill="#255749" transform="translate(274,374)"/>
<path d="M0 0 C0.66 0 1.32 0 2 0 C-0.25384814 7.32500644 -3.50844223 14.19146234 -7 21 C-7.82683893 18.63150654 -8.10792077 17.35223221 -7.36328125 14.921875 C-7.01652344 14.20515625 -6.66976563 13.4884375 -6.3125 12.75 C-5.94253906 11.97269531 -5.57257813 11.19539063 -5.19140625 10.39453125 C-4.60166016 9.20923828 -4.60166016 9.20923828 -4 8 C-3.61714844 7.22011719 -3.23429687 6.44023437 -2.83984375 5.63671875 C-1.90565661 3.75160277 -0.9545008 1.87491229 0 0 Z " fill="#255647" transform="translate(265,331)"/>
<path d="M0 0 C1 2 1 2 0.3984375 4.2421875 C-1.60967728 9.40810108 -3.07843416 12.99237643 -8 16 C-8.33 15.34 -8.66 14.68 -9 14 C-7.58902133 11.54330645 -6.13956406 9.22085376 -4.5625 6.875 C-4.12873047 6.21628906 -3.69496094 5.55757812 -3.24804688 4.87890625 C-2.17250886 3.24787057 -1.08715514 1.62331547 0 0 Z " fill="#23313F" transform="translate(146,159)"/>
<path d="M0 0 C-3.92666217 2.92574828 -7.33465702 5.40045383 -12 7 C-12.99 7.495 -12.99 7.495 -14 8 C-14.66 7.34 -15.32 6.68 -16 6 C-14.42840514 2.85681028 -11.77138608 2.53911691 -8.5625 1.3125 C-7.38816406 0.85488281 -6.21382812 0.39726563 -5.00390625 -0.07421875 C-2 -1 -2 -1 0 0 Z " fill="#263A47" transform="translate(221,105)"/>
<path d="M0 0 C0.99 0 1.98 0 3 0 C2.52309796 1.62566606 2.04340334 3.25051311 1.5625 4.875 C1.29566406 5.77992188 1.02882813 6.68484375 0.75390625 7.6171875 C0 10 0 10 -1 12 C-1.66 12 -2.32 12 -3 12 C-4.15081169 7.97215907 -3.96281457 5.71901707 -2 2 C-1.34 1.67 -0.68 1.34 0 1 C0 0.67 0 0.34 0 0 Z " fill="#63B35A" transform="translate(270,376)"/>
<path d="M0 0 C0.66 0 1.32 0 2 0 C4.29612756 13.6332574 4.29612756 13.6332574 4 20 C1.86168417 16.79252626 1.46552015 14.88370763 0.875 11.125 C0.70742187 10.09632813 0.53984375 9.06765625 0.3671875 8.0078125 C0.03629634 5.29732111 -0.07041464 2.72605266 0 0 Z " fill="#1E2B37" transform="translate(119,264)"/>
<path d="M0 0 C0.33 0.99 0.66 1.98 1 3 C-0.98271681 6.39894311 -3.08706449 9.35187681 -6 12 C-6.66 12.66 -7.32 13.32 -8 14 C-8.66 13.34 -9.32 12.68 -10 12 C-6.7 8.04 -3.4 4.08 0 0 Z " fill="#21303F" transform="translate(159,143)"/>
<path d="M0 0 C0.99 0.33 1.98 0.66 3 1 C-0.96 9.91 -0.96 9.91 -5 19 C-6.16835309 15.49494073 -5.75193262 14.33566718 -4.6875 10.875 C-4.42324219 9.98554688 -4.15898437 9.09609375 -3.88671875 8.1796875 C-3 6 -3 6 -1 5 C-0.34444881 2.47266765 -0.34444881 2.47266765 0 0 Z " fill="#225446" transform="translate(282,292)"/>
<path d="M0 0 C0.33 0 0.66 0 1 0 C0.91253716 1.43861294 0.80434652 2.87597508 0.6875 4.3125 C0.62949219 5.11300781 0.57148438 5.91351563 0.51171875 6.73828125 C-0.09185493 9.40598476 -1.0017081 10.20561544 -3 12 C-4.19027984 14.59915538 -4.19027984 14.59915538 -5 17 C-5.66 17 -6.32 17 -7 17 C-5.1668733 11.00067626 -2.92678249 5.55079437 0 0 Z " fill="#5DA65C" transform="translate(291,278)"/>
<path d="M0 0 C0.99 0.33 1.98 0.66 3 1 C2.01 2.485 2.01 2.485 1 4 C-0.32 4 -1.64 4 -3 4 C-3 4.66 -3 5.32 -3 6 C-5.8125 7.5625 -5.8125 7.5625 -9 9 C-9.99 8.67 -10.98 8.34 -12 8 C-10.07053972 6.63292504 -8.13289523 5.28155046 -6.1875 3.9375 C-5.10855469 3.18339844 -4.02960938 2.42929688 -2.91796875 1.65234375 C-1.95503906 1.10707031 -0.99210938 0.56179687 0 0 Z " fill="#233446" transform="translate(190,118)"/>
<path d="M0 0 C0.66 0.33 1.32 0.66 2 1 C-1.96 9.91 -1.96 9.91 -6 19 C-6.33 19 -6.66 19 -7 19 C-7.33168041 14.2459141 -6.59443287 11.94353797 -4 8 C-3.30420546 5.80869466 -3.30420546 5.80869466 -3 4 C-2.34 4 -1.68 4 -1 4 C-0.67 2.68 -0.34 1.36 0 0 Z " fill="#225349" transform="translate(274,312)"/>
<path d="M0 0 C0.33 0.99 0.66 1.98 1 3 C0.27683594 3.67095703 0.27683594 3.67095703 -0.4609375 4.35546875 C-5.30796815 8.95594955 -5.30796815 8.95594955 -8 15 C-9.32 14.67 -10.64 14.34 -12 14 C-11.55269531 13.49210938 -11.10539062 12.98421875 -10.64453125 12.4609375 C-7.03713058 8.35357725 -3.47885075 4.21678879 0 0 Z " fill="#62AB5E" transform="translate(349,145)"/>
<path d="M0 0 C2.69082872 0.17635452 5.32851446 0.61835921 8 1 C4.34827367 3.26849666 0.9872882 3.3895951 -3.25 3.625 C-4.51328125 3.69976562 -5.7765625 3.77453125 -7.078125 3.8515625 C-8.04234375 3.90054687 -9.0065625 3.94953125 -10 4 C-10 3.34 -10 2.68 -10 2 C-9.04287109 1.90912109 -9.04287109 1.90912109 -8.06640625 1.81640625 C-6.82697266 1.69072266 -6.82697266 1.69072266 -5.5625 1.5625 C-4.73878906 1.48128906 -3.91507812 1.40007812 -3.06640625 1.31640625 C-1.01337975 1.21069185 -1.01337975 1.21069185 0 0 Z " fill="#222F3F" transform="translate(295,395)"/>
<path d="M0 0 C0.99 0.33 1.98 0.66 3 1 C2.67 2.32 2.34 3.64 2 5 C2 4.01 2 3.02 2 2 C1.34 2 0.68 2 0 2 C-0.33 3.32 -0.66 4.64 -1 6 C-2.32 6 -3.64 6 -5 6 C-5.33 6.99 -5.66 7.98 -6 9 C-8.0625 9.6875 -8.0625 9.6875 -10 10 C-7.90814081 5.92637948 -6.00757642 4.15792576 -2 2 C-1.34 1.34 -0.68 0.68 0 0 Z " fill="#5EB253" transform="translate(360,135)"/>
<path d="M0 0 C0.33 0 0.66 0 1 0 C1.51084038 5.36382397 0.08523105 7.6993749 -3 12 C-3.76939681 14.22602615 -3.76939681 14.22602615 -4 16 C-4.66 16 -5.32 16 -6 16 C-6 16.99 -6 17.98 -6 19 C-6.66 18.67 -7.32 18.34 -8 18 C-5.36 12.06 -2.72 6.12 0 0 Z " fill="#5EA560" transform="translate(323,208)"/>
<path d="M0 0 C4.83256305 0.41421969 6.82679218 2.46413986 10 6 C8.8553125 5.938125 8.8553125 5.938125 7.6875 5.875 C4.77281584 5.77919176 4.77281584 5.77919176 2 8 C2 6.35 2 4.7 2 3 C1.34 2.67 0.68 2.34 0 2 C0 1.34 0 0.68 0 0 Z " fill="#253646" transform="translate(353,122)"/>
<path d="M0 0 C3.3 0 6.6 0 10 0 C10.33 1.32 10.66 2.64 11 4 C11.66 4.33 12.32 4.66 13 5 C8.15340923 4.40895235 4.39251833 3.02055843 0 1 C0 0.67 0 0.34 0 0 Z " fill="#1F313E" transform="translate(207,386)"/>
<path d="M0 0 C2.57833439 2.57833439 3.3761471 5.10325781 4.6875 8.5 C5.14511719 9.6653125 5.60273438 10.830625 6.07421875 12.03125 C7 15 7 15 6 17 C-0.35416667 6.19791667 -0.35416667 6.19791667 0 0 Z " fill="#205548" transform="translate(228,363)"/>
<path d="M0 0 C0.0825 0.5775 0.165 1.155 0.25 1.75 C1.20531013 4.6159304 2.78469173 5.9990764 5 8 C2.69 8 0.38 8 -2 8 C-2.6875 6.25 -2.6875 6.25 -3 4 C-1.5625 1.75 -1.5625 1.75 0 0 Z " fill="#5EB453" transform="translate(329,168)"/>
<path d="M0 0 C2 1 2 1 3.1875 3.8125 C3.96421451 6.85961076 4.10096399 8.13749363 3 11 C2.34 9.02 1.68 7.04 1 5 C0.4225 5.28875 -0.155 5.5775 -0.75 5.875 C-3.875 7.4375 -3.875 7.4375 -7 9 C-6.02180976 7.68677212 -5.0424189 6.37443848 -4.0625 5.0625 C-3.51722656 4.33160156 -2.97195313 3.60070312 -2.41015625 2.84765625 C-1 1 -1 1 0 0 Z " fill="#5BA25E" transform="translate(361,131)"/>
<path d="M0 0 C0.66 0 1.32 0 2 0 C0.27933894 5.44876003 -1.84705349 10.71169451 -4 16 C-4.33 16 -4.66 16 -5 16 C-5 13.69 -5 11.38 -5 9 C-4.34 9 -3.68 9 -3 9 C-2.87625 8.2575 -2.7525 7.515 -2.625 6.75 C-2.04513299 4.19858515 -1.26291261 2.2732427 0 0 Z " fill="#63AE5A" transform="translate(282,352)"/>
<path d="M0 0 C1.07894531 0.30164063 2.15789062 0.60328125 3.26953125 0.9140625 C4.35621094 1.21054687 5.44289062 1.50703125 6.5625 1.8125 C7.39394531 2.05226563 8.22539062 2.29203125 9.08203125 2.5390625 C9.08203125 3.1990625 9.08203125 3.8590625 9.08203125 4.5390625 C3.80887792 4.093774 -0.93567099 3.45533087 -5.91796875 1.5390625 C-2.91796875 -0.4609375 -2.91796875 -0.4609375 0 0 Z " fill="#1D2E3B" transform="translate(231.91796875,392.4609375)"/>
<path d="M0 0 C0.33 0 0.66 0 1 0 C1.4912621 4.72839767 -0.04967849 7.33072754 -2.5 11.3125 C-3.1496875 12.38113281 -3.799375 13.44976562 -4.46875 14.55078125 C-5.22671875 15.76314453 -5.22671875 15.76314453 -6 17 C-6.33 16.34 -6.66 15.68 -7 15 C-5.92591043 12.39525962 -4.79954367 9.90033962 -3.5625 7.375 C-3.22412109 6.66859375 -2.88574219 5.9621875 -2.53710938 5.234375 C-1.69845121 3.48618616 -0.85012153 1.74264314 0 0 Z " fill="#61A861" transform="translate(272,320)"/>
<path d="M0 0 C6.40353322 -0.2361959 11.84629161 0.176679 18 2 C18 2.33 18 2.66 18 3 C9.91304348 4.34782609 9.91304348 4.34782609 6 2 C4.00889599 1.61709538 2.00899487 1.27395385 0 1 C0 0.67 0 0.34 0 0 Z " fill="#263340" transform="translate(284,97)"/>
<path d="M0 0 C1.32 0 2.64 0 4 0 C2.40109514 5.19644079 0.25861997 10.06612142 -2 15 C-3.04116106 11.79377554 -3.13486303 11.27558967 -1.5625 8.0625 C-0.7890625 6.5465625 -0.7890625 6.5465625 0 5 C0.25284367 2.24853726 0.25284367 2.24853726 0 0 Z " fill="#5FA95E" transform="translate(297,314)"/>
<path d="M0 0 C0.33 0 0.66 0 1 0 C1.31416607 5.23610116 0.77647622 8.51492303 -2 13 C-2.99 13.495 -2.99 13.495 -4 14 C-3.52188823 12.22888156 -3.0424722 10.45811517 -2.5625 8.6875 C-2.29566406 7.70136719 -2.02882813 6.71523437 -1.75390625 5.69921875 C-1.21920575 3.78482474 -0.62855462 1.88566385 0 0 Z " fill="#1C2D36" transform="translate(127,195)"/>
<path d="M0 0 C0.66 0 1.32 0 2 0 C1.44854729 5.23880078 0.57077907 9.97350697 -1 15 C-2.19126781 11.42619658 -1.7349445 9.49116698 -1.0625 5.8125 C-0.86785156 4.72582031 -0.67320312 3.63914062 -0.47265625 2.51953125 C-0.31667969 1.68808594 -0.16070312 0.85664063 0 0 Z " fill="#21303B" transform="translate(417,277)"/>
<path d="M0 0 C0.33 0 0.66 0 1 0 C1.36717663 7.4659249 1.36717663 7.4659249 -0.375 10 C-2 11 -2 11 -4 11 C-2.7874262 7.27566618 -1.49140021 3.62197194 0 0 Z " fill="#5BA55C" transform="translate(314,227)"/>
<path d="M0 0 C-2.26969744 2.26969744 -3.97395487 2.99131829 -7 4 C-8.32 4 -9.64 4 -11 4 C-10.67 3.01 -10.34 2.02 -10 1 C-6.52674819 -0.1577506 -3.63932552 -0.06866652 0 0 Z " fill="#22303C" transform="translate(331,387)"/>
<path d="M0 0 C2.475 0.495 2.475 0.495 5 1 C5.33 2.65 5.66 4.3 6 6 C6.66 6 7.32 6 8 6 C8.33 6.99 8.66 7.98 9 9 C8.34 9 7.68 9 7 9 C7 8.34 7 7.68 7 7 C6.01 6.67 5.02 6.34 4 6 C4 5.34 4 4.68 4 4 C3.34 4 2.68 4 2 4 C1.34 2.68 0.68 1.36 0 0 Z " fill="#1F2C37" transform="translate(154,346)"/>
<path d="M0 0 C1.68178661 2.52267991 2.90106742 4.81091823 4.125 7.5625 C4.47820312 8.34753906 4.83140625 9.13257813 5.1953125 9.94140625 C6 12 6 12 6 14 C5.34 14 4.68 14 4 14 C-0.59225513 4.58997722 -0.59225513 4.58997722 0 0 Z " fill="#5CA460" transform="translate(242,336)"/>
<path d="M0 0 C0.66 0.99 1.32 1.98 2 3 C4.42521494 3.58189266 4.42521494 3.58189266 7.125 3.6875 C8.49011719 3.78611328 8.49011719 3.78611328 9.8828125 3.88671875 C10.58148438 3.92410156 11.28015625 3.96148437 12 4 C12 4.33 12 4.66 12 5 C7.05 5 2.1 5 -3 5 C-2.01 3.35 -1.02 1.7 0 0 Z " fill="#63A963" transform="translate(325,172)"/>
<path d="M0 0 C1.32 0 2.64 0 4 0 C4 0.66 4 1.32 4 2 C6.31 2 8.62 2 11 2 C11 3.32 11 4.64 11 6 C7.2089881 4.55049545 3.6125362 2.84827434 0 1 C0 0.67 0 0.34 0 0 Z " fill="#1D2C3B" transform="translate(188,376)"/>
<path d="M0 0 C0.66 0.33 1.32 0.66 2 1 C0.54744301 4.82946843 -1.42895561 6.12050295 -5 8 C-4.67 6.35 -4.34 4.7 -4 3 C-3.01 3 -2.02 3 -1 3 C-0.67 2.01 -0.34 1.02 0 0 Z " fill="#60B352" transform="translate(278,312)"/>
<path d="M0 0 C1.65 0 3.3 0 5 0 C4.65120368 3.25543229 3.97866739 4.01873107 1.4375 6.25 C0.633125 6.8275 -0.17125 7.405 -1 8 C-1 5.16032769 -0.59732819 2.76264289 0 0 Z " fill="#214F4C" transform="translate(323,168)"/>
<path d="M0 0 C2.125 0.9375 2.125 0.9375 4 2 C2.75 3.5 2.75 3.5 1 5 C-0.32 5 -1.64 5 -3 5 C-2.625 3.0625 -2.625 3.0625 -2 1 C-1.34 0.67 -0.68 0.34 0 0 Z " fill="#5EB255" transform="translate(266,336)"/>
<path d="M0 0 C0.99 0 1.98 0 3 0 C1.7508258 3.45925163 0.32472205 6.14693203 -2 9 C-2.25 3.375 -2.25 3.375 0 0 Z " fill="#252F42" transform="translate(405,312)"/>
<path d="M0 0 C1.65 0 3.3 0 5 0 C5.28875 0.61875 5.5775 1.2375 5.875 1.875 C6.93720042 4.13325765 6.93720042 4.13325765 9 6 C8.01 6.495 8.01 6.495 7 7 C6.34 6.67 5.68 6.34 5 6 C5 5.34 5 4.68 5 4 C4.360625 3.71125 3.72125 3.4225 3.0625 3.125 C1 2 1 2 0 0 Z " fill="#1B2631" transform="translate(163,356)"/>
<path d="M0 0 C3.11019741 1.55509871 3.69411606 3.85400688 5 7 C5.1875 10.375 5.1875 10.375 5 13 C4 11 4 11 3 9 C2.46375 7.989375 1.9275 6.97875 1.375 5.9375 C0 3 0 3 0 0 Z " fill="#60A661" transform="translate(213,325)"/>
<path d="M0 0 C2 3 2 3 1.75 5.5 C1 8 1 8 -1 11 C-2.60080151 6.99799622 -1.29279692 3.95443764 0 0 Z " fill="#243442" transform="translate(412,293)"/>
<path d="M0 0 C6.42857143 4.14285714 6.42857143 4.14285714 9 7 C7.35 6.67 5.7 6.34 4 6 C3.67 5.01 3.34 4.02 3 3 C0.98491642 2.26676204 0.98491642 2.26676204 -1 2 C-0.67 1.34 -0.34 0.68 0 0 Z " fill="#23343D" transform="translate(363,128)"/>
<path d="M0 0 C3.37462715 0.54723683 5.08235 1.0549 8 3 C6.02 3.66 4.04 4.32 2 5 C1.34 3.35 0.68 1.7 0 0 Z " fill="#233544" transform="translate(321,105)"/>
<path d="M0 0 C-2.31 1.65 -4.62 3.3 -7 5 C-7.33 4.34 -7.66 3.68 -8 3 C-8.66 2.67 -9.32 2.34 -10 2 C-8.71211992 1.46987262 -7.41953322 0.9511671 -6.125 0.4375 C-5.40570313 0.14746094 -4.68640625 -0.14257812 -3.9453125 -0.44140625 C-2 -1 -2 -1 0 0 Z " fill="#212F3B" transform="translate(221,105)"/>
<path d="M0 0 C0.99 0.33 1.98 0.66 3 1 C0.03 3.475 0.03 3.475 -3 6 C-3.33 5.01 -3.66 4.02 -4 3 C-2.1875 1.4375 -2.1875 1.4375 0 0 Z " fill="#23313B" transform="translate(366,363)"/>
<path d="M0 0 C1 2 1 2 0.44140625 3.9453125 C0.15136719 4.66460937 -0.13867188 5.38390625 -0.4375 6.125 C-0.72496094 6.84945312 -1.01242187 7.57390625 -1.30859375 8.3203125 C-1.53675781 8.87460938 -1.76492188 9.42890625 -2 10 C-2.66 10 -3.32 10 -4 10 C-3.52449439 8.51965236 -3.04448784 7.04074979 -2.5625 5.5625 C-2.29566406 4.73878906 -2.02882813 3.91507813 -1.75390625 3.06640625 C-1 1 -1 1 0 0 Z " fill="#60A263" transform="translate(328,198)"/>
<path d="M0 0 C2.0625 0.4375 2.0625 0.4375 4 1 C2.625 2.5 2.625 2.5 1 4 C0.34 4 -0.32 4 -1 4 C-1.33 4.66 -1.66 5.32 -2 6 C-1.125 1.125 -1.125 1.125 0 0 Z " fill="#1E3039" transform="translate(373,356)"/>
<path d="M0 0 C0.66 0 1.32 0 2 0 C2.66 3.3 3.32 6.6 4 10 C1.7448078 7.7448078 1.02276532 5.9952413 0 3 C0 2.01 0 1.02 0 0 Z " fill="#66AF64" transform="translate(209,315)"/>
<path d="M0 0 C1.98 0.99 1.98 0.99 4 2 C3.34 3.98 2.68 5.96 2 8 C0 6 0 6 -0.125 2.875 C-0.08375 1.92625 -0.0425 0.9775 0 0 Z " fill="#224A4D" transform="translate(224,288)"/>
<path d="M0 0 C1.2077558 3.62326739 0.54311128 4.64146369 -1 8 C-1.66 7.67 -2.32 7.34 -3 7 C-3 5.35 -3 3.7 -3 2 C-2.01 2 -1.02 2 0 2 C0 1.34 0 0.68 0 0 Z " fill="#67B362" transform="translate(335,233)"/>
<path d="M0 0 C2.72426311 2.35277269 3.8141763 4.62496331 5 8 C2.5 6.8125 2.5 6.8125 0 5 C-0.3125 2.3125 -0.3125 2.3125 0 0 Z " fill="#232D3A" transform="translate(400,170)"/>
<path d="M0 0 C4 4.625 4 4.625 4 8 C2 6.8125 2 6.8125 0 5 C-0.25 2.3125 -0.25 2.3125 0 0 Z " fill="#263847" transform="translate(395,162)"/>
<path d="M0 0 C3.45925163 1.2491742 6.14693203 2.67527795 9 5 C5.625 4.75 5.625 4.75 2 4 C0.5625 1.9375 0.5625 1.9375 0 0 Z " fill="#222E3D" transform="translate(338,112)"/>
</svg>
