<?xml version="1.0" encoding="UTF-8"?>
<svg version="1.1" xmlns="http://www.w3.org/2000/svg" width="500" height="499">
<path d="M0 0 C0.99515625 0.5878125 1.9903125 1.175625 3.015625 1.78125 C18.55754845 11.33215268 33.2257172 24.09271481 44.0625 38.8125 C44.84608887 39.87114258 44.84608887 39.87114258 45.64550781 40.95117188 C49.44034103 46.12961221 52.96294296 51.33584679 56 57 C56.93392578 58.69576172 56.93392578 58.69576172 57.88671875 60.42578125 C76.9484617 96.05259569 80.21365494 138.2278745 68.8125 176.8125 C65.82284478 186.43663344 61.87761797 195.20361204 57 204 C56.37351562 205.22976563 56.37351562 205.22976563 55.734375 206.484375 C37.96572931 240.7703533 3.97234769 265.4811964 -32.17553711 277.03491211 C-35.757645 278.12881984 -39.36739549 279.08936079 -43 280 C-43.65677734 280.16661133 -44.31355469 280.33322266 -44.99023438 280.50488281 C-65.25943087 285.37554048 -89.87465404 285.15608037 -110 280 C-110.70125 279.83371094 -111.4025 279.66742188 -112.125 279.49609375 C-135.27742519 273.99331664 -157.03474386 263.77514541 -175 248 C-175.79148438 247.32839844 -176.58296875 246.65679687 -177.3984375 245.96484375 C-206.55596106 220.62447233 -225.91879274 184.13422961 -228.85498047 145.40332031 C-230.68642931 115.05183483 -226.01517965 85.70801322 -211 59 C-210.13568359 57.40478516 -210.13568359 57.40478516 -209.25390625 55.77734375 C-191.63426269 24.24103022 -160.64195586 -2.10829426 -126 -13 C-83.34507501 -24.98494687 -38.78603443 -22.94385135 0 0 Z " fill="#26455A" transform="translate(327,118)"/>
<path d="M0 0 C4.90527419 0.14864467 6.95321976 2.67770311 10.1652832 5.98754883 C13.01198686 9.11002099 15.55894316 12.41187644 18.0625 15.8125 C18.84608887 16.87114258 18.84608887 16.87114258 19.64550781 17.95117188 C23.44034103 23.12961221 26.96294296 28.33584679 30 34 C30.93392578 35.69576172 30.93392578 35.69576172 31.88671875 37.42578125 C50.9484617 73.05259569 54.21365494 115.2278745 42.8125 153.8125 C39.82284478 163.43663344 35.87761797 172.20361204 31 181 C30.37351562 182.22976563 30.37351562 182.22976563 29.734375 183.484375 C11.96572931 217.7703533 -22.02765231 242.4811964 -58.17553711 254.03491211 C-61.757645 255.12881984 -65.36739549 256.08936079 -69 257 C-69.98516602 257.24991699 -69.98516602 257.24991699 -70.99023438 257.50488281 C-86.65763024 261.26973465 -103.00485198 260.28715281 -119 260 C-119 259.67 -119 259.34 -119 259 C-115.37 258.67 -111.74 258.34 -108 258 C-108.66 257.67 -109.32 257.34 -110 257 C-110 256.34 -110 255.68 -110 255 C-110.99 255.33 -111.98 255.66 -113 256 C-116.34816253 255.93971772 -119.67024453 255.53220004 -123 255.1875 C-123.91523438 255.10435547 -124.83046875 255.02121094 -125.7734375 254.93554688 C-126.65257812 254.84724609 -127.53171875 254.75894531 -128.4375 254.66796875 C-129.24058594 254.58828857 -130.04367188 254.5086084 -130.87109375 254.42651367 C-133 254 -133 254 -136 252 C-136.51171875 249.6171875 -136.51171875 249.6171875 -136.6875 246.875 C-136.75324219 245.96492187 -136.81898438 245.05484375 -136.88671875 244.1171875 C-136.92410156 243.41851562 -136.96148437 242.71984375 -137 242 C-135 245 -135 245 -132 252 C-123.42 252.33 -114.84 252.66 -106 253 C-105.67 251.35 -105.34 249.7 -105 248 C-104.27011885 246.14156025 -103.48637139 244.30380702 -102.6640625 242.484375 C-102.18275879 241.4116333 -101.70145508 240.3388916 -101.20556641 239.23364258 C-100.68397949 238.08404053 -100.16239258 236.93443848 -99.625 235.75 C-99.07800036 234.53372273 -98.53162346 233.31716522 -97.98583984 232.1003418 C-96.86589596 229.60375153 -95.74407274 227.10801933 -94.62109375 224.61279297 C-92.26296864 219.35744125 -89.94106499 214.08649356 -87.625 208.8125 C-87.18655762 207.81589355 -86.74811523 206.81928711 -86.29638672 205.79248047 C-83.66881991 199.81544657 -81.05383194 193.83301812 -78.4453125 187.84765625 C-77.51689985 185.71923629 -76.58837967 183.59086327 -75.65985107 181.4624939 C-74.78297543 179.45065636 -73.90827342 177.43788424 -73.03369141 175.42504883 C-69.66895411 167.70029542 -66.18704027 160.04238451 -62.58691406 152.42431641 C-60.98893308 148.97611928 -59.48779434 145.4969525 -58 142 C-57.14701429 140.07716229 -56.2889397 138.15657397 -55.42578125 136.23828125 C-54.68328125 134.58578369 -54.68328125 134.58578369 -53.92578125 132.89990234 C-53.12720703 131.12413818 -53.12720703 131.12413818 -52.3125 129.3125 C-46.32792097 115.99078867 -40.3910295 102.64814776 -34.4699707 89.2980957 C-31.78683752 83.25115211 -29.10333167 77.20540038 -26.35546875 71.1875 C-23.77358945 65.52915716 -21.28728183 59.830851 -18.8125 54.125 C-18.37486328 53.11953125 -17.93722656 52.1140625 -17.48632812 51.078125 C-15.12874991 45.69835702 -15.12874991 45.69835702 -12.9909668 40.22998047 C-12 38 -12 38 -9.9375 37.1875 C-5.95322718 36.93318471 -1.99059871 36.92175297 2 37 C1.73445312 36.03320312 1.46890625 35.06640625 1.1953125 34.0703125 C-5.58927251 9.17854502 -5.58927251 9.17854502 -2 2 C-1.34 2 -0.68 2 0 2 C0 1.34 0 0.68 0 0 Z " fill="#27465A" transform="translate(353,141)"/>
<path d="M0 0 C0.66 0 1.32 0 2 0 C2.22139648 0.74983154 2.44279297 1.49966309 2.67089844 2.2722168 C3.69651185 5.74420103 4.72325126 9.21585135 5.75 12.6875 C6.27207031 14.45577148 6.27207031 14.45577148 6.8046875 16.25976562 C7.32675781 18.02416992 7.32675781 18.02416992 7.859375 19.82421875 C8.20935547 21.00935059 8.55933594 22.19448242 8.91992188 23.41552734 C9.64540543 25.8232013 10.39186054 28.2246468 11.15820312 30.61962891 C11.52365234 31.76222168 11.88910156 32.90481445 12.265625 34.08203125 C12.59852539 35.10143799 12.93142578 36.12084473 13.27441406 37.17114258 C14 40 14 40 14 45 C9.38 45.33 4.76 45.66 0 46 C-0.33 47.65 -0.66 49.3 -1 51 C-1.58772755 52.57614798 -2.22350683 54.13495851 -2.8984375 55.67578125 C-3.28950684 56.57329102 -3.68057617 57.47080078 -4.08349609 58.39550781 C-4.50969238 59.35811523 -4.93588867 60.32072266 -5.375 61.3125 C-6.04329834 62.83568848 -6.04329834 62.83568848 -6.72509766 64.38964844 C-10.31873503 72.54458558 -14.02247651 80.64751945 -17.75366211 88.74023438 C-22.7615444 99.61439316 -27.60777291 110.55903638 -32.453125 121.50634766 C-35.10974417 127.50638244 -37.77359011 133.50319958 -40.4375 139.5 C-40.9214624 140.59094971 -41.4054248 141.68189941 -41.90405273 142.8059082 C-44.13025248 147.81901748 -46.36975586 152.82513079 -48.64453125 157.81640625 C-50.55421318 162.00677248 -52.41759937 166.21279854 -54.25 170.4375 C-56.82555871 176.35631839 -59.46082537 182.24560742 -62.125 188.125 C-66.20968676 197.15244139 -70.14756154 206.24145413 -74.07025146 215.34005737 C-78.92379913 226.59146332 -83.90204467 237.78360779 -88.95019531 248.94897461 C-89.46678711 250.09374268 -89.98337891 251.23851074 -90.515625 252.41796875 C-90.97227539 253.42625732 -91.42892578 254.4345459 -91.89941406 255.47338867 C-93.06522893 258.0474462 -93.06522893 258.0474462 -94 261 C-102.58 261 -111.16 261 -120 261 C-125.14937753 250.06649886 -129.80364137 238.97515915 -134.39282227 227.79833984 C-137.95428517 219.13512468 -141.60990427 210.55388993 -145.62161255 202.08877563 C-147.8872453 197.29433344 -149.91011048 192.44739904 -151.8125 187.5 C-154.72521677 180.07706003 -157.80123505 172.74164152 -161 165.4375 C-161.41789795 164.48198242 -161.8357959 163.52646484 -162.26635742 162.54199219 C-163.10036423 160.63522812 -163.93442941 158.72848959 -164.76855469 156.82177734 C-166.73939017 152.30573522 -168.69179145 147.78227087 -170.625 143.25 C-171.13933594 142.06168579 -171.13933594 142.06168579 -171.6640625 140.84936523 C-174 135.34592082 -174 135.34592082 -174 132 C-165.75 132 -157.5 132 -149 132 C-140.28841905 152.21581055 -131.67641438 172.46824351 -123.24035645 192.80067444 C-122.94189819 193.52000656 -122.64343994 194.23933868 -122.3359375 194.98046875 C-122.04489136 195.68211655 -121.75384521 196.38376434 -121.45397949 197.10667419 C-119.77134394 201.15841174 -118.07177128 205.20230352 -116.3515625 209.23828125 C-115.78876587 210.55989258 -115.78876587 210.55989258 -115.21459961 211.90820312 C-114.56536378 213.4279736 -113.9129434 214.94639109 -113.25610352 216.46289062 C-111.49226997 220.5937446 -110.14862129 224.66885727 -109 229 C-108.34 229 -107.68 229 -107 229 C-106.649375 227.824375 -106.29875 226.64875 -105.9375 225.4375 C-103.80985782 219.06451571 -100.86381826 213.07625139 -97.96923828 207.02685547 C-96.38372995 203.711266 -94.81629294 200.38720089 -93.25 197.0625 C-92.91919434 196.36060547 -92.58838867 195.65871094 -92.24755859 194.93554688 C-86.18754735 182.04771443 -80.30155533 169.07846267 -74.41796875 156.109375 C-73.15372534 153.32288058 -71.88942974 150.53640987 -70.625 147.75 C-70.30727631 147.04980743 -69.98955261 146.34961487 -69.66220093 145.62820435 C-64.70867106 134.71601468 -59.69414584 123.83410656 -54.63549805 112.97021484 C-50.7626655 104.6517691 -46.92613725 96.31740612 -43.11035156 87.97265625 C-39.0894307 79.18259922 -35.03595304 70.4077106 -30.97045898 61.63818359 C-28.57225875 56.45449108 -26.21113706 51.26639062 -24 46 C-28.95 46 -33.9 46 -39 46 C-39 45.34 -39 44.68 -39 44 C-38.34 44 -37.68 44 -37 44 C-36.77441406 43.45472656 -36.54882812 42.90945312 -36.31640625 42.34765625 C-34.6085679 39.30192673 -32.32945554 36.94679215 -29.9375 34.4375 C-26.2907372 30.54216218 -22.78494697 26.59789838 -19.4375 22.4375 C-15.54751741 17.60470296 -11.44047731 13.0197254 -7.234375 8.4609375 C-5.41438517 6.45640324 -3.68780137 4.42721583 -2 2.3125 C-1.34 1.549375 -0.68 0.78625 0 0 Z " fill="#5EB94A" transform="translate(341,133)"/>
<path d="M0 0 C0.33 0 0.66 0 1 0 C1.15855469 0.60585938 1.31710938 1.21171875 1.48046875 1.8359375 C3.078908 7.57618896 5.16337725 12.63653106 8.01171875 17.87109375 C9 20 9 20 9 23 C9.66 23 10.32 23 11 23 C11.226875 23.886875 11.45375 24.77375 11.6875 25.6875 C13.37098374 31.59786017 15.68123796 37.31457385 18 43 C18.24733887 43.70455322 18.49467773 44.40910645 18.74951172 45.13500977 C19.86391729 47.23705911 19.86391729 47.23705911 22.33837891 47.63769531 C23.29147949 47.70053711 24.24458008 47.76337891 25.2265625 47.828125 C26.2578125 47.90546875 27.2890625 47.9828125 28.3515625 48.0625 C29.97191406 48.1553125 29.97191406 48.1553125 31.625 48.25 C32.71296875 48.32734375 33.8009375 48.4046875 34.921875 48.484375 C37.61389782 48.67328888 40.30588028 48.84438754 43 49 C43 48.01 43 47.02 43 46 C43.66 46 44.32 46 45 46 C45.33 44.68 45.66 43.36 46 42 C47 45 47 45 45 50 C36.42 50 27.84 50 19 50 C14.69441607 40.77185325 10.52573359 31.49786539 6.51098633 22.13989258 C5.87084444 20.65347818 5.22586759 19.16913799 4.57641602 17.68676758 C3.62457523 15.51319638 2.68769515 13.33372019 1.75390625 11.15234375 C1.46133438 10.49193588 1.16876251 9.83152802 0.86732483 9.15110779 C-0.27713211 6.43938979 -1.0684481 4.51083793 -0.67211914 1.55297852 C-0.45031982 1.04049561 -0.22852051 0.5280127 0 0 Z " fill="#5FA95B" transform="translate(202,344)"/>
<path d="M0 0 C1.13081215 3.39243644 0.96749581 3.71769165 -0.44360352 6.7902832 C-0.78468643 7.54569901 -1.12576935 8.30111481 -1.47718811 9.079422 C-1.8572551 9.89497055 -2.23732208 10.7105191 -2.62890625 11.55078125 C-3.01561996 12.40117477 -3.40233368 13.2515683 -3.80076599 14.12773132 C-5.04556321 16.86025986 -6.30356809 19.58645876 -7.5625 22.3125 C-8.79019622 24.99302247 -10.01513201 27.67479024 -11.23934937 30.35690308 C-12.03737578 32.10383311 -12.83734808 33.84987561 -13.63931274 35.59500122 C-16.51223355 41.86257202 -19.22317473 48.18216796 -21.82397461 54.56713867 C-23 57 -23 57 -25 58 C-23.35242326 50.70358873 -20.82438444 42.68186829 -16.9375 36.25 C-14.86748244 32.77771248 -13.45954085 29.3154641 -12.0078125 25.5546875 C-11.03261992 23.08268771 -9.97449289 20.66888436 -8.875 18.25 C-6.64009805 13.27186546 -4.95051078 8.38622774 -4 3 C-3.01 2.67 -2.02 2.34 -1 2 C-0.67 1.34 -0.34 0.68 0 0 Z " fill="#60AB5A" transform="translate(320,224)"/>
<path d="M0 0 C8.25 0 16.5 0 25 0 C26.175625 2.76375 27.35125 5.5275 28.5625 8.375 C28.93705322 9.24431152 29.31160645 10.11362305 29.69750977 11.00927734 C30.12761353 12.03722412 30.12761353 12.03722412 30.56640625 13.0859375 C30.86490479 13.7876709 31.16340332 14.4894043 31.47094727 15.21240234 C32 17 32 17 31 19 C30.34 19 29.68 19 29 19 C28.34 19.33 27.68 19.66 27 20 C27.03480469 19.41992188 27.06960937 18.83984375 27.10546875 18.2421875 C27.28981557 12.92246509 26.69627085 9.71847398 24 5 C24 4.01 24 3.02 24 2 C17.07 2 10.14 2 3 2 C3.99 5.3 4.98 8.6 6 12 C5.67 12.99 5.34 13.98 5 15 C4.16013916 13.06532058 3.32831973 11.12714871 2.5 9.1875 C2.0359375 8.10855469 1.571875 7.02960938 1.09375 5.91796875 C0 3 0 3 0 0 Z " fill="#60AC5C" transform="translate(167,265)"/>
<path d="M0 0 C3.05402088 1.52701044 3.65869481 3.95157912 5 7 C5 7.99 5 8.98 5 10 C5.66 10 6.32 10 7 10 C7 9.34 7 8.68 7 8 C7.66 8 8.32 8 9 8 C9.33 9.65 9.66 11.3 10 13 C10.33 13 10.66 13 11 13 C11.00257813 13.71542969 11.00515625 14.43085938 11.0078125 15.16796875 C11.30681661 22.87230809 13.20618392 28.39227208 16.8203125 35.1875 C18.10953196 38.26113581 17.95336888 38.96869267 17 42 C7.38736208 20.06108084 7.38736208 20.06108084 2.875 9.1875 C2.58036865 8.48375244 2.2857373 7.78000488 1.98217773 7.05493164 C0 2.23969306 0 2.23969306 0 0 Z " fill="#60AE57" transform="translate(179,294)"/>
<path d="M0 0 C3 3.625 3 3.625 3 7 C2.40058594 7.18433594 1.80117188 7.36867188 1.18359375 7.55859375 C-1.9988273 9.65933323 -2.72354333 12.60622972 -3.9375 16.0625 C-5.62571122 20.6027773 -7.33398906 24.87911737 -9.8125 29.0625 C-11.75804296 32.35495732 -12.70211099 35.12744281 -13 39 C-13.66 39 -14.32 39 -15 39 C-15 39.99 -15 40.98 -15 42 C-16.485 42.495 -16.485 42.495 -18 43 C-15.95868638 36.3897462 -13.39544119 30.15323387 -10.5 23.875 C-9.71819434 22.16431633 -8.93693385 20.4533834 -8.15625 18.7421875 C-7.78669189 17.93370361 -7.41713379 17.12521973 -7.03637695 16.29223633 C-5.64439838 13.21348796 -4.31688835 10.11158575 -3 7 C-2 4.66666667 -1 2.33333333 0 0 Z " fill="#275948" transform="translate(298,276)"/>
<path d="M0 0 C0.33 0 0.66 0 1 0 C1.39901281 4.52214517 -0.0040718 7.00814361 -2 11 C-2.144375 12.2375 -2.28875 13.475 -2.4375 14.75 C-2.623125 15.8225 -2.80875 16.895 -3 18 C-4.9375 19.125 -4.9375 19.125 -7 20 C-8.77944967 23.16346608 -9.25897343 26.40596835 -9.875 29.9375 C-10.7412795 34.53703162 -11.98581297 37.4206529 -15 41 C-15.66 41 -16.32 41 -17 41 C-16.35807594 36.98091669 -15.08738791 33.62713644 -13.41796875 29.921875 C-12.89783203 28.76042969 -12.37769531 27.59898437 -11.84179688 26.40234375 C-11.29050483 25.18483232 -10.73907169 23.96738477 -10.1875 22.75 C-9.38602539 20.96529297 -9.38602539 20.96529297 -8.56835938 19.14453125 C-7.52720455 16.82658508 -6.48413958 14.50949573 -5.43896484 12.19335938 C-3.61052586 8.13567666 -1.80310548 4.06899348 0 0 Z " fill="#25564A" transform="translate(264,353)"/>
<path d="M0 0 C0.6875 1.6875 0.6875 1.6875 1 4 C-0.4375 6.75 -0.4375 6.75 -2 9 C0.97 9 3.94 9 7 9 C8.23788062 13.95152246 7.07051961 15.46078394 5 20 C4.30859478 22.77888613 4.30859478 22.77888613 4 25 C3.34 25 2.68 25 2 25 C2 25.66 2 26.32 2 27 C1.34 27 0.68 27 0 27 C1.60250371 21.79186293 3.74859317 16.95309502 6 12 C1.05 12 -3.9 12 -9 12 C-9 11.34 -9 10.68 -9 10 C-8.34 10 -7.68 10 -7 10 C-6.773125 9.46375 -6.54625 8.9275 -6.3125 8.375 C-4.56617944 5.21499137 -2.3597151 2.7323017 0 0 Z " fill="#60A860" transform="translate(311,167)"/>
<path d="M0 0 C0.99 0 1.98 0 3 0 C3.32613281 1.02480469 3.65226563 2.04960937 3.98828125 3.10546875 C4.42936247 4.46625123 4.87078693 5.82692249 5.3125 7.1875 C5.52583984 7.86103516 5.73917969 8.53457031 5.95898438 9.22851562 C7.24870435 13.17467375 8.79278913 16.45876058 11 20 C11.52784853 21.42034604 12.00965747 22.85889836 12.4375 24.3125 C13.42437993 27.45589532 14.58087846 30.2776392 16.125 33.1875 C17.82797573 36.43095377 18.63211832 39.32118324 19 43 C19.66 43 20.32 43 21 43 C21.53394179 44.4117783 22.05165104 45.82970244 22.5625 47.25 C22.85253906 48.03890625 23.14257812 48.8278125 23.44140625 49.640625 C24.05384098 52.22741227 23.72332269 53.49494634 23 56 C22.32682292 54.40885417 21.65364583 52.81770833 20.98046875 51.2265625 C20.31990479 49.66542725 20.31990479 49.66542725 19.64599609 48.07275391 C18.66547136 45.7548814 17.68533443 43.43684481 16.70556641 41.11865234 C14.0978616 34.95021944 11.48371164 28.78471291 8.85546875 22.625 C8.35571533 21.45114746 7.85596191 20.27729492 7.34106445 19.06787109 C6.37712032 16.80416747 5.41087745 14.54144109 4.44213867 12.27978516 C4.00490479 11.25159668 3.5676709 10.2234082 3.1171875 9.1640625 C2.73159668 8.26123535 2.34600586 7.3584082 1.94873047 6.42822266 C1.1134505 4.29037021 0.49068419 2.23838008 0 0 Z " fill="#235448" transform="translate(198,280)"/>
<path d="M0 0 C0.33 0 0.66 0 1 0 C1.125 2.875 1.125 2.875 1 6 C0.34 6.66 -0.32 7.32 -1 8 C-1.6425235 10.06874034 -1.6425235 10.06874034 -2 12 C-2.66 12 -3.32 12 -4 12 C-3.87625 12.969375 -3.7525 13.93875 -3.625 14.9375 C-3.60681501 19.46556321 -5.82534197 22.03891441 -8.40625 25.59375 C-10.53111078 28.80187314 -11.81936513 32.1395866 -13.140625 35.73828125 C-13.9661617 37.91094374 -14.92566179 39.94085176 -16 42 C-16.66 42 -17.32 42 -18 42 C-15.48556856 33.75374636 -11.99552522 26.01944109 -8.4375 18.1875 C-7.84141451 16.86540671 -7.24570868 15.54314216 -6.65039062 14.22070312 C-2.01026169 3.93578589 -2.01026169 3.93578589 0 0 Z " fill="#25544B" transform="translate(329,207)"/>
<path d="M0 0 C1.19690605 3.7201134 0.56166137 5.53075364 -1.109375 9.0703125 C-2.02695281 11.05839775 -2.76821197 13.06198056 -3.5 15.125 C-4.67899245 18.33310051 -6.17731079 21.10026717 -8 24 C-8.33 24.99 -8.66 25.98 -9 27 C-9.66 27 -10.32 27 -11 27 C-11.103125 27.680625 -11.20625 28.36125 -11.3125 29.0625 C-12.30215429 33.29102289 -14.06216857 37.12433714 -16 41 C-16.66 41 -17.32 41 -18 41 C-16.74156819 37.05522369 -15.3134208 33.30739072 -13.57421875 29.55078125 C-13.10693359 28.53693359 -12.63964844 27.52308594 -12.15820312 26.47851562 C-11.67287109 25.43373047 -11.18753906 24.38894531 -10.6875 23.3125 C-9.73290969 21.24616915 -8.77848177 19.17976327 -7.82421875 17.11328125 C-7.35806152 16.10604004 -6.8919043 15.09879883 -6.41162109 14.06103516 C-4.25436454 9.38312394 -2.12534527 4.69247906 0 0 Z " fill="#5DA859" transform="translate(296,225)"/>
<path d="M0 0 C0.66 0 1.32 0 2 0 C2.99 2.31 3.98 4.62 5 7 C5 6.34 5 5.68 5 5 C5.66 5 6.32 5 7 5 C7 5.66 7 6.32 7 7 C7.99 6.67 8.98 6.34 10 6 C10.33 6.66 10.66 7.32 11 8 C10.67 8.66 10.34 9.32 10 10 C9.34 10 8.68 10 8 10 C7.22686955 15.9114744 6.85180723 21.1314592 8 27 C5.29658696 22.94488044 4.24945267 18.70867614 2.875 14.0625 C2.45927734 12.7022168 2.45927734 12.7022168 2.03515625 11.31445312 C1.64263672 10.00057617 1.64263672 10.00057617 1.2421875 8.66015625 C1.0035498 7.86230713 0.76491211 7.06445801 0.51904297 6.24243164 C0 4 0 4 0 0 Z " fill="#244C4E" transform="translate(343,133)"/>
<path d="M0 0 C0.33 0.66 0.66 1.32 1 2 C-0.00260741 4.60554149 -1.07688887 7.09616053 -2.25 9.625 C-2.77787109 10.78684814 -2.77787109 10.78684814 -3.31640625 11.97216797 C-4.53644851 14.65175392 -5.7683754 17.32571911 -7 20 C-7.99538078 22.17681405 -8.99014917 24.3539082 -9.984375 26.53125 C-12.64757041 32.35817044 -15.32067877 38.18047872 -18 44 C-19.22419163 40.06204091 -18.48320272 37.83887763 -17 34 C-16.34 34 -15.68 34 -15 34 C-14.83177734 33.21882813 -14.83177734 33.21882813 -14.66015625 32.421875 C-13.80140373 29.27142197 -12.62376488 26.29170481 -11.4375 23.25 C-10.98246094 22.07953125 -10.52742188 20.9090625 -10.05859375 19.703125 C-9.70925781 18.81109375 -9.35992187 17.9190625 -9 17 C-8.34 17 -7.68 17 -7 17 C-7 15.35 -7 13.7 -7 12 C-6.34 12 -5.68 12 -5 12 C-5 10.68 -5 9.36 -5 8 C-4.34 8 -3.68 8 -3 8 C-2.690625 6.865625 -2.38125 5.73125 -2.0625 4.5625 C-1 1 -1 1 0 0 Z " fill="#23534A" transform="translate(286,244)"/>
<path d="M0 0 C2.66134763 3.99202145 3.70554253 8.11478442 5.0625 12.6875 C5.33126953 13.56083984 5.60003906 14.43417969 5.87695312 15.33398438 C7.44549433 20.57158208 8.4866178 25.55561349 9 31 C2.565 31.495 2.565 31.495 -4 32 C-3.67 31.34 -3.34 30.68 -3 30 C0.63 30 4.26 30 8 30 C7.01 26.7 6.02 23.4 5 20 C4.34 20 3.68 20 3 20 C1.35993952 13.33042073 0.48641215 6.84817102 0 0 Z " fill="#589F5D" transform="translate(346,147)"/>
<path d="M0 0 C3.67822053 1.61249004 6.53024166 3.89746249 9.625 6.4375 C10.58664062 7.21996094 11.54828125 8.00242188 12.5390625 8.80859375 C15 11 15 11 17 14 C16.01 14.495 16.01 14.495 15 15 C14.34 14.34 13.68 13.68 13 13 C12.34 13 11.68 13 11 13 C10.67 13.33 10.34 13.66 10 14 C8 12.25 8 12.25 6 10 C6 8.68 6 7.36 6 6 C3.03 5.505 3.03 5.505 0 5 C0 3.35 0 1.7 0 0 Z " fill="#465D71" transform="translate(339,127)"/>
<path d="M0 0 C0.66 0.33 1.32 0.66 2 1 C0.625 3 0.625 3 -1 5 C-1.66 5 -2.32 5 -3 5 C-3 5.66 -3 6.32 -3 7 C1.95 7 6.9 7 12 7 C11.1302743 11.34862851 10.0525056 14.16270693 8 18 C6.74458443 14.23375329 7.62938042 12.62811066 9 9 C8.31292969 9.0721875 7.62585938 9.144375 6.91796875 9.21875 C5.56638672 9.35796875 5.56638672 9.35796875 4.1875 9.5 C3.29417969 9.5928125 2.40085937 9.685625 1.48046875 9.78125 C-1 10 -1 10 -4 10 C-4.33 8.35 -4.66 6.7 -5 5 C-4.01 4.67 -3.02 4.34 -2 4 C-0.79117904 1.99983534 -0.79117904 1.99983534 0 0 Z " fill="#255647" transform="translate(305,172)"/>
<path d="M0 0 C2.1985445 2.73931081 3.6870603 5.29055027 4.97265625 8.5546875 C5.31490234 9.41707031 5.65714844 10.27945312 6.00976562 11.16796875 C6.53086914 12.50794922 6.53086914 12.50794922 7.0625 13.875 C7.41376953 14.76058594 7.76503906 15.64617187 8.12695312 16.55859375 C9.878612 21.00231059 11.54982829 25.44661111 13 30 C11.68 30 10.36 30 9 30 C8.814375 28.2984375 8.814375 28.2984375 8.625 26.5625 C8.41875 25.386875 8.2125 24.21125 8 23 C7.34 22.67 6.68 22.34 6 22 C5.896875 21.030625 5.79375 20.06125 5.6875 19.0625 C5.21373274 14.64370917 3.21666858 11.25675505 1.05859375 7.4296875 C-0.10763585 4.75295388 -0.20039918 2.8878035 0 0 Z " fill="#5AA559" transform="translate(205,298)"/>
<path d="M0 0 C2.35661204 3.53491806 3.93506813 7.17771758 5.625 11.0625 C5.94984375 11.79533203 6.2746875 12.52816406 6.609375 13.28320312 C9 18.75251116 9 18.75251116 9 21 C7.68 20.34 6.36 19.68 5 19 C4.01 19.66 3.02 20.32 2 21 C2 17 2 17 2.5625 14.5625 C3.04452053 11.73923691 2.70803917 9.75348568 2 7 C1.34 7 0.68 7 0 7 C0 4.69 0 2.38 0 0 Z " fill="#284E4F" transform="translate(179,296)"/>
<path d="M0 0 C2.82478809 4.23718213 4.62392693 8.82874505 6.625 13.5 C7.04523438 14.46292969 7.46546875 15.42585938 7.8984375 16.41796875 C8.29546875 17.34222656 8.6925 18.26648438 9.1015625 19.21875 C9.46588379 20.06373047 9.83020508 20.90871094 10.20556641 21.77929688 C11 24 11 24 11 27 C10.34 27 9.68 27 9 27 C7.97943386 25.09494321 7.08365422 23.35772137 6.58984375 21.24609375 C5.81927769 18.31181903 4.67200871 15.60964869 3.5 12.8125 C3.0565625 11.74644531 2.613125 10.68039062 2.15625 9.58203125 C1.23708118 7.11829429 1.23708118 7.11829429 0 6 C-0.04080783 4.00041636 -0.04254356 1.99954746 0 0 Z " fill="#275848" transform="translate(188,317)"/>
<path d="M0 0 C2 3 2 3 5 10 C13.25 10.33 21.5 10.66 30 11 C30 11.33 30 11.66 30 12 C25.72922344 12.05794812 21.45854764 12.09357874 17.1875 12.125 C15.97255859 12.14175781 14.75761719 12.15851563 13.50585938 12.17578125 C12.34248047 12.18222656 11.17910156 12.18867188 9.98046875 12.1953125 C8.37014771 12.21102295 8.37014771 12.21102295 6.72729492 12.22705078 C4 12 4 12 1 10 C0.48828125 7.6171875 0.48828125 7.6171875 0.3125 4.875 C0.24675781 3.96492188 0.18101562 3.05484375 0.11328125 2.1171875 C0.07589844 1.41851562 0.03851563 0.71984375 0 0 Z " fill="#265949" transform="translate(216,383)"/>
<path d="M0 0 C1.15125171 3.45375512 0.90103267 3.86412364 -0.546875 7.01953125 C-0.8975 7.79490234 -1.248125 8.57027344 -1.609375 9.36914062 C-1.98578125 10.17544922 -2.3621875 10.98175781 -2.75 11.8125 C-3.1109375 12.60720703 -3.471875 13.40191406 -3.84375 14.22070312 C-5.80921212 18.52549245 -7.85358513 22.78188723 -10 27 C-11.17438197 23.52260925 -11.05097762 23.10979796 -9.375 19.5 C-9.00375 18.81550781 -8.6325 18.13101563 -8.25 17.42578125 C-6.28280083 13.60818536 -4.74938763 9.61869981 -3.1484375 5.63671875 C-2 3 -2 3 0 0 Z " fill="#5EA75A" transform="translate(332,197)"/>
<path d="M0 0 C0.58984375 1.828125 0.58984375 1.828125 1 4 C-0.4375 6.75 -0.4375 6.75 -2 9 C0.97 9 3.94 9 7 9 C7.33 10.32 7.66 11.64 8 13 C7.67 12.34 7.34 11.68 7 11 C2.71 11 -1.58 11 -6 11 C-6.33 10.01 -6.66 9.02 -7 8 C-5.56640625 5.95703125 -5.56640625 5.95703125 -3.5625 3.8125 C-2.90378906 3.09707031 -2.24507813 2.38164062 -1.56640625 1.64453125 C-1.04949219 1.10183594 -0.53257812 0.55914062 0 0 Z " fill="#5FAF55" transform="translate(311,167)"/>
<path d="M0 0 C4.25171681 3.3618226 7.6381774 6.74828319 11 11 C10.67 11.66 10.34 12.32 10 13 C7.525 12.01 7.525 12.01 5 11 C5 10.34 5 9.68 5 9 C4.01 9 3.02 9 2 9 C2 8.01 2 7.02 2 6 C1.34 5.67 0.68 5.34 0 5 C0 3.35 0 1.7 0 0 Z " fill="#556977" transform="translate(359,144)"/>
<path d="M0 0 C2.64 0 5.28 0 8 0 C8.12375 0.639375 8.2475 1.27875 8.375 1.9375 C8.58125 2.618125 8.7875 3.29875 9 4 C9.66 4.33 10.32 4.66 11 5 C2.42857143 5.14285714 2.42857143 5.14285714 -1 4 C-0.67 2.68 -0.34 1.36 0 0 Z " fill="#385365" transform="translate(223,395)"/>
<path d="M0 0 C0.66 0 1.32 0 2 0 C1.59773543 4.41459584 -1.40387125 6.53697056 -4.5625 9.25 C-5.08263672 9.70890625 -5.60277344 10.1678125 -6.13867188 10.640625 C-7.41895555 11.7682143 -8.70858798 12.88517315 -10 14 C-10.33 12.68 -10.66 11.36 -11 10 C-6.25 7 -6.25 7 -4 7 C-4 6.01 -4 5.02 -4 4 C-3.34 4 -2.68 4 -2 4 C-2 3.34 -2 2.68 -2 2 C-1.34 2 -0.68 2 0 2 C0 1.34 0 0.68 0 0 Z " fill="#586B78" transform="translate(356,354)"/>
<path d="M0 0 C2.67203645 2.67203645 3.65857759 5.79019271 5 9.25 C5.26039063 9.90613281 5.52078125 10.56226563 5.7890625 11.23828125 C7.31776201 15.12179565 8.71678028 19.02695433 10 23 C9.34 23 8.68 23 8 23 C7.75765625 22.3709375 7.5153125 21.741875 7.265625 21.09375 C5.60113482 16.84289816 3.90607803 12.71474574 1.75 8.6875 C0.18089648 5.66574987 -0.43301986 3.46415886 0 0 Z " fill="#5DA65A" transform="translate(218,329)"/>
<path d="M0 0 C0.66 0 1.32 0 2 0 C2.66 2.97 3.32 5.94 4 9 C-1.36095333 10.12862175 -6.55306686 10.09688221 -12 10 C-12.33 10.99 -12.66 11.98 -13 13 C-13 11.68 -13 10.36 -13 9 C-8.32798795 7.79431947 -3.78503708 7.90617574 1 8 C0.67 5.36 0.34 2.72 0 0 Z " fill="#235549" transform="translate(354,170)"/>
<path d="M0 0 C0.66 0 1.32 0 2 0 C2.99 4.29 3.98 8.58 5 13 C4.01 13.495 4.01 13.495 3 14 C3 12.35 3 10.7 3 9 C2.34 9 1.68 9 1 9 C0.67 7.68 0.34 6.36 0 5 C-1.65 5.66 -3.3 6.32 -5 7 C-3.47793991 4.37098712 -2.15634036 2.15634036 0 0 Z " fill="#5DA75A" transform="translate(341,133)"/>
<path d="M0 0 C0.33 0.99 0.66 1.98 1 3 C-0.186118 4.48264749 -1.38236569 5.95961395 -2.65234375 7.37109375 C-4.57335535 9.69301212 -5.76388111 12.26752666 -7 15 C-8.65 15 -10.3 15 -12 15 C-11.13375 14.01 -10.2675 13.02 -9.375 12 C-6.05802459 8.13809292 -3.00716738 4.10552994 0 0 Z " fill="#5EAC59" transform="translate(324,152)"/>
<path d="M0 0 C1.62979774 5.55060016 -0.73845809 9.86148018 -3 15 C-4.2183201 17.15359614 -5.50357477 19.02258094 -7 21 C-8 19 -8 19 -7.37915039 17.02880859 C-7.03875732 16.24328613 -6.69836426 15.45776367 -6.34765625 14.6484375 C-5.98349609 13.79765625 -5.61933594 12.946875 -5.24414062 12.0703125 C-4.65922852 10.73613281 -4.65922852 10.73613281 -4.0625 9.375 C-3.48338867 8.02921875 -3.48338867 8.02921875 -2.89257812 6.65625 C-1.93529275 4.43440246 -0.97085723 2.21594292 0 0 Z " fill="#295848" transform="translate(273,332)"/>
<path d="M0 0 C0.99 0.33 1.98 0.66 3 1 C2.09066991 2.27609323 1.17217147 3.54565553 0.25 4.8125 C-0.26046875 5.52019531 -0.7709375 6.22789062 -1.296875 6.95703125 C-3.02482358 9.02977691 -4.78526476 10.47375854 -7 12 C-7 10.35 -7 8.7 -7 7 C-5.68 6.67 -4.36 6.34 -3 6 C-3 5.01 -3 4.02 -3 3 C-1.5 1.3125 -1.5 1.3125 0 0 Z " fill="#27534A" transform="translate(320,153)"/>
<path d="M0 0 C2.26844039 3.40266059 2.80189993 6.0092118 3.625 10 C3.88539063 11.2375 4.14578125 12.475 4.4140625 13.75 C5 17 5 17 5 20 C4.34 20 3.68 20 3 20 C1.35993952 13.33042073 0.48641215 6.84817102 0 0 Z " fill="#5DAB56" transform="translate(346,147)"/>
<path d="M0 0 C0.66 0 1.32 0 2 0 C7.55580866 12.48519362 7.55580866 12.48519362 8 19 C5.85727214 15.7859082 4.37881715 12.47398867 2.875 8.9375 C2.59785156 8.30005859 2.32070312 7.66261719 2.03515625 7.00585938 C0 2.24880696 0 2.24880696 0 0 Z " fill="#225448" transform="translate(222,336)"/>
<path d="M0 0 C1.07079018 3.21237053 0.95713639 4.9395555 -0.3125 8.0625 C-0.57675781 8.73410156 -0.84101563 9.40570313 -1.11328125 10.09765625 C-2 12 -2 12 -4 15 C-4.66 15 -5.32 15 -6 15 C-4.36041242 9.76727367 -2.61047965 4.84803364 0 0 Z " fill="#5AA558" transform="translate(256,312)"/>
<path d="M0 0 C3.02952396 1.51476198 3.37093771 3.85368016 4.625 6.9375 C5.07101563 8.01902344 5.51703125 9.10054688 5.9765625 10.21484375 C7 13 7 13 7 15 C6.01 14.67 5.02 14.34 4 14 C2.3125 10.4375 2.3125 10.4375 1 7 C0.67 7 0.34 7 0 7 C0 4.69 0 2.38 0 0 Z " fill="#28584A" transform="translate(199,344)"/>
<path d="M0 0 C0.33 0 0.66 0 1 0 C1.43212038 4.609284 0.35402574 9.02099381 -2 13 C-4.109375 14.23828125 -4.109375 14.23828125 -6 15 C-4 10 -2 5 0 0 Z " fill="#275749" transform="translate(310,249)"/>
<path d="M0 0 C0.6875 1.6875 0.6875 1.6875 1 4 C-0.3125 6.4375 -0.3125 6.4375 -2 9 C-2.69822617 10.65369357 -3.37498605 12.31727014 -4 14 C-4.66 14 -5.32 14 -6 14 C-4.45941767 8.98491285 -2.97068161 4.3852919 0 0 Z " fill="#275648" transform="translate(340,183)"/>
<path d="M0 0 C0.66 0.33 1.32 0.66 2 1 C1.67 1.99 1.34 2.98 1 4 C-2.3 3.01 -5.6 2.02 -9 1 C-4.80184617 -1.09907691 -4.20805526 -1.21812126 0 0 Z " fill="#445C6B" transform="translate(195,387)"/>
<path d="M0 0 C0.66 0 1.32 0 2 0 C0.56835889 3.65938172 -0.98934296 7.23988068 -2.625 10.8125 C-3.29402344 12.27623047 -3.29402344 12.27623047 -3.9765625 13.76953125 C-4.31429688 14.50558594 -4.65203125 15.24164063 -5 16 C-5.33 16 -5.66 16 -6 16 C-6 14.35 -6 12.7 -6 11 C-5.34 11 -4.68 11 -4 11 C-3.896875 10.29875 -3.79375 9.5975 -3.6875 8.875 C-2.90640997 5.60862353 -1.57941257 2.9528148 0 0 Z " fill="#5FA95B" transform="translate(339,181)"/>
<path d="M0 0 C0 1.32 0 2.64 0 4 C-0.9075 3.835 -1.815 3.67 -2.75 3.5 C-6.11087503 2.89862854 -6.11087503 2.89862854 -10 3 C-4.375 -1.3125 -4.375 -1.3125 0 0 Z " fill="#466171" transform="translate(188,113)"/>
<path d="M0 0 C1.305239 3.91571701 0.32239848 5.03892997 -1.4375 8.6875 C-1.91058594 9.68136719 -2.38367188 10.67523438 -2.87109375 11.69921875 C-3.42990234 12.83810547 -3.42990234 12.83810547 -4 14 C-5.20284062 10.01344251 -4.61262471 7.87029931 -3 4 C-1.375 1.625 -1.375 1.625 0 0 Z " fill="#5FAB5A" transform="translate(288,296)"/>
<path d="M0 0 C1.69433918 3.0469629 2.49467112 5.82821466 3.125 9.25 C3.29257812 10.14203125 3.46015625 11.0340625 3.6328125 11.953125 C3.75398438 12.62859375 3.87515625 13.3040625 4 14 C-0.12221017 9.7448153 -0.71360991 6.7278019 -1 1 C-0.67 0.67 -0.34 0.34 0 0 Z " fill="#5E7280" transform="translate(395,205)"/>
<path d="M0 0 C1.68178661 2.52267991 2.90106742 4.81091823 4.125 7.5625 C4.47820312 8.34753906 4.83140625 9.13257813 5.1953125 9.94140625 C6 12 6 12 6 14 C5.34 14 4.68 14 4 14 C3.34 11.69 2.68 9.38 2 7 C1.34 7 0.68 7 0 7 C0 4.69 0 2.38 0 0 Z " fill="#255948" transform="translate(179,296)"/>
<path d="M0 0 C0 3.72038015 -0.90324391 4.44902879 -3.3125 7.1875 C-3.92738281 7.90292969 -4.54226563 8.61835938 -5.17578125 9.35546875 C-7 11 -7 11 -10 11 C-6.7 7.37 -3.4 3.74 0 0 Z " fill="#5DA659" transform="translate(335,140)"/>
<path d="M0 0 C0 0.99 0 1.98 0 3 C-0.99 3.33 -1.98 3.66 -3 4 C-3.33 4.99 -3.66 5.98 -4 7 C-5.98 7 -7.96 7 -10 7 C-7.2180632 3.72713318 -3.72045933 2.03572303 0 0 Z " fill="#4A5E6C" transform="translate(177,116)"/>
<path d="M0 0 C5.23880078 0.55145271 9.97350697 1.42922093 15 3 C11.61981469 4.04005702 8.5219721 4.08004482 5 4 C5 3.67 5 3.34 5 3 C3.35 2.67 1.7 2.34 0 2 C0 1.34 0 0.68 0 0 Z " fill="#596A76" transform="translate(280,101)"/>
<path d="M0 0 C2.97 0.495 2.97 0.495 6 1 C6 3.31 6 5.62 6 8 C1.125 3.375 1.125 3.375 0 0 Z " fill="#546775" transform="translate(126,337)"/>
<path d="M0 0 C0.66 0.33 1.32 0.66 2 1 C1.34 3.97 0.68 6.94 0 10 C-0.66 10 -1.32 10 -2 10 C-2.25 3.375 -2.25 3.375 0 0 Z " fill="#2C4252" transform="translate(397,276)"/>
<path d="M0 0 C2.18975773 3.28463659 2.99806563 6.20696275 4 10 C3.34 10 2.68 10 2 10 C1.67 11.32 1.34 12.64 1 14 C0.67 9.38 0.34 4.76 0 0 Z " fill="#26544D" transform="translate(168,270)"/>
<path d="M0 0 C1.17571451 3.67410785 1.07366746 7.16929183 1 11 C-0.32 11.33 -1.64 11.66 -3 12 C-2.68950274 10.56206608 -2.3765224 9.1246682 -2.0625 7.6875 C-1.88847656 6.88699219 -1.71445313 6.08648437 -1.53515625 5.26171875 C-1 3 -1 3 0 0 Z " fill="#5A6C7A" transform="translate(108,193)"/>
<path d="M0 0 C0.33 1.32 0.66 2.64 1 4 C0.34 4 -0.32 4 -1 4 C-1.103125 4.763125 -1.20625 5.52625 -1.3125 6.3125 C-2.04364039 9.17059424 -2.76951913 10.15742885 -5 12 C-5 8.55639368 -4.20408468 7.25204608 -2.5 4.3125 C-2.0359375 3.50425781 -1.571875 2.69601563 -1.09375 1.86328125 C-0.7328125 1.24839844 -0.371875 0.63351563 0 0 Z " fill="#516571" transform="translate(120,170)"/>
<path d="M0 0 C2.88437779 1.29299694 4.87219421 2.65941363 7 5 C2.25 6.125 2.25 6.125 0 5 C0 3.35 0 1.7 0 0 Z " fill="#4F6A78" transform="translate(339,127)"/>
<path d="M0 0 C0.66 0.66 1.32 1.32 2 2 C1.01 3.98 0.02 5.96 -1 8 C-1.66 8 -2.32 8 -3 8 C-3.66 6.02 -4.32 4.04 -5 2 C-3.02 2.99 -3.02 2.99 -1 4 C-0.67 2.68 -0.34 1.36 0 0 Z " fill="#285B48" transform="translate(235,354)"/>
<path d="M0 0 C0 3.5747073 -0.55352838 4.46916729 -3 7 C-5.6875 7.75 -5.6875 7.75 -8 8 C-3.375 2.25 -3.375 2.25 0 0 Z " fill="#5E6F7C" transform="translate(152,133)"/>
<path d="M0 0 C0.99 0 1.98 0 3 0 C3.144375 0.763125 3.28875 1.52625 3.4375 2.3125 C3.9632594 5.08172908 3.9632594 5.08172908 5 8 C4.34 8.66 3.68 9.32 3 10 C0 3.375 0 3.375 0 0 Z " fill="#506472" transform="translate(107,300)"/>
<path d="M0 0 C0.95465783 2.16967689 1.14401212 3.56328793 0.3984375 5.82421875 C-0.35870385 7.5684743 -1.17609198 9.28627131 -2 11 C-2.66 11 -3.32 11 -4 11 C-3.52269162 9.5410574 -3.04308958 8.08286504 -2.5625 6.625 C-2.29566406 5.81289063 -2.02882813 5.00078125 -1.75390625 4.1640625 C-1 2 -1 2 0 0 Z " fill="#5DA559" transform="translate(277,266)"/>
<path d="M0 0 C0.66 0 1.32 0 2 0 C1.54917531 1.46067199 1.08906463 2.91848032 0.625 4.375 C0.36976563 5.18710938 0.11453125 5.99921875 -0.1484375 6.8359375 C-1 9 -1 9 -3 11 C-3.125 5.25 -3.125 5.25 -2 3 C-1.34 3 -0.68 3 0 3 C0 2.01 0 1.02 0 0 Z " fill="#25504C" transform="translate(310,190)"/>
<path d="M0 0 C3.08669204 3.08669204 3.44855089 3.91927658 4 8 C3.01 8 2.02 8 1 8 C0.01 8.495 0.01 8.495 -1 9 C-0.67 6.03 -0.34 3.06 0 0 Z " fill="#61AF58" transform="translate(195,276)"/>
<path d="M0 0 C0.96516243 3.00272755 1.22393475 5.04215769 0 8 C-0.99 8.33 -1.98 8.66 -3 9 C-2.30058404 5.85262818 -1.23921302 2.97411124 0 0 Z " fill="#5BA758" transform="translate(300,216)"/>
<path d="M0 0 C0.66 0.33 1.32 0.66 2 1 C0.02 3.31 -1.96 5.62 -4 8 C-4.33 7.01 -4.66 6.02 -5 5 C-4.34 4.01 -3.68 3.02 -3 2 C-2.01 2 -1.02 2 0 2 C0 1.34 0 0.68 0 0 Z " fill="#235546" transform="translate(336,136)"/>
<path d="M0 0 C3.96 0 7.92 0 12 0 C11.67 0.99 11.34 1.98 11 3 C10.34 3 9.68 3 9 3 C9 2.34 9 1.68 9 1 C8.01 1.33 7.02 1.66 6 2 C3.99124558 1.72428861 1.98821313 1.39764263 0 1 C0 0.67 0 0.34 0 0 Z " fill="#20484F" transform="translate(234,395)"/>
<path d="M0 0 C2.50298434 2.93828597 3.46930939 5.17902761 4 9 C3.01 9 2.02 9 1 9 C0.67 6.03 0.34 3.06 0 0 Z " fill="#275947" transform="translate(212,374)"/>
<path d="M0 0 C0.33 0 0.66 0 1 0 C1 1.65 1 3.3 1 5 C0.360625 5.28875 -0.27875 5.5775 -0.9375 5.875 C-3.15206079 6.82823451 -3.15206079 6.82823451 -4 9 C-4 5 -4 5 -2.5625 3.375 C-2.046875 2.92125 -1.53125 2.4675 -1 2 C-0.67 1.34 -0.34 0.68 0 0 Z " fill="#214A4E" transform="translate(260,366)"/>
<path d="M0 0 C1.39195915 4.17587745 -0.17676781 6.13474776 -2 10 C-2.66 10 -3.32 10 -4 10 C-2.8905928 6.51329166 -1.73662334 3.22515763 0 0 Z " fill="#5DA35A" transform="translate(247,332)"/>
<path d="M0 0 C0.33 0.66 0.66 1.32 1 2 C-0.14186589 4.94982021 -1.67281553 6.88437775 -4 9 C-4.66 8.67 -5.32 8.34 -6 8 C-4.02 5.36 -2.04 2.72 0 0 Z " fill="#647581" transform="translate(132,153)"/>
<path d="M0 0 C0.66 0.33 1.32 0.66 2 1 C0.35 2.98 -1.3 4.96 -3 7 C-3.66 5.68 -4.32 4.36 -5 3 C-4.34 2.67 -3.68 2.34 -3 2 C-2.34 2.33 -1.68 2.66 -1 3 C-0.67 2.01 -0.34 1.02 0 0 Z " fill="#255149" transform="translate(329,144)"/>
<path d="M0 0 C1.485 0.99 1.485 0.99 3 2 C3.40843923 4.71203652 3.13336867 7.2437142 3 10 C0.70366176 6.55549263 0.45983515 4.06187717 0 0 Z " fill="#5F6F7C" transform="translate(101,280)"/>
<path d="M0 0 C3 3.625 3 3.625 3 7 C1.68 7.33 0.36 7.66 -1 8 C-0.67 5.36 -0.34 2.72 0 0 Z " fill="#244E50" transform="translate(298,276)"/>
<path d="M0 0 C0.66 0.99 1.32 1.98 2 3 C0.625 6.6875 0.625 6.6875 -1 10 C-1.66 9.67 -2.32 9.34 -3 9 C-2.01 6.03 -1.02 3.06 0 0 Z " fill="#495B6C" transform="translate(113,182)"/>
</svg>
