<?xml version="1.0" encoding="UTF-8"?>
<svg version="1.1" xmlns="http://www.w3.org/2000/svg" width="500" height="500">
<path d="M0 0 C0.66 0.33 1.32 0.66 2 1 C2.8515625 3.8359375 2.8515625 3.8359375 3.625 7.375 C4.01558594 9.11910156 4.01558594 9.11910156 4.4140625 10.8984375 C5 14 5 14 5 17 C4.39728271 17.05389893 3.79456543 17.10779785 3.17358398 17.16333008 C0.78402288 17.83356428 0.78402288 17.83356428 -0.44116211 20.29956055 C-0.88210205 21.31832275 -1.32304199 22.33708496 -1.77734375 23.38671875 C-2.28458984 24.53881836 -2.79183594 25.69091797 -3.31445312 26.87792969 C-3.85568119 28.14769593 -4.39669124 29.41755511 -4.9375 30.6875 C-5.50450183 31.98789745 -6.07288243 33.28769452 -6.64257812 34.58691406 C-8.14182372 38.01660907 -9.62274395 41.45387501 -11.09735107 44.89422607 C-13.16101061 49.70850139 -15.23541407 54.51815936 -17.31079102 59.32739258 C-18.41430242 61.88510774 -19.50909975 64.44628233 -20.59741211 67.01049805 C-23.40776479 73.57397635 -26.39997847 79.83231605 -30 86 C-32.97 86 -35.94 86 -39 86 C-40.78003486 81.9114584 -42.55810357 77.82206876 -44.33447266 73.73193359 C-44.93714277 72.34498878 -45.54031953 70.95826399 -46.14404297 69.57177734 C-56 46.93413143 -56 46.93413143 -56 44 C-53.03 44 -50.06 44 -47 44 C-43.2350861 52.03715662 -39.63282491 60.1138976 -36.19921875 68.296875 C-35.25292564 70.86694266 -35.25292564 70.86694266 -34 72 C-31.40383734 66.39906927 -28.80781477 60.79807363 -26.21191406 55.19702148 C-25.33141738 53.29726467 -24.45088445 51.39752466 -23.5703125 49.49780273 C-18.70539055 39.00228647 -13.84216025 28.50604268 -9 18 C-10.32 18 -11.64 18 -13 18 C-11.59618624 13.74278218 -9.55933627 11.12306156 -6.5 7.875 C-4.08551892 5.29589521 -1.96265593 2.94398389 0 0 Z " fill="#67B955" transform="translate(161,199)"/>
<path d="M0 0 C11 0 11 0 14.26953125 3.1484375 C15.15677799 4.53270062 16.00409515 5.94326232 16.8125 7.375 C17.23724609 8.05433594 17.66199219 8.73367187 18.09960938 9.43359375 C19.44051785 11.59765419 20.71938507 13.79972308 22 16 C23.98 19.3 25.96 22.6 28 26 C28.33 17.42 28.66 8.84 29 0 C31.64 0 34.28 0 37 0 C37 13.86 37 27.72 37 42 C28 42 28 42 25.78515625 40.03125 C25.19605469 39.0309375 24.60695313 38.030625 24 37 C23.10668255 35.65370882 22.20920238 34.31017466 21.30859375 32.96875 C20.34877326 31.4809624 19.39179971 29.99133477 18.4375 28.5 C17.95603516 27.75363281 17.47457031 27.00726563 16.97851562 26.23828125 C14.5885549 22.52348673 12.27387088 18.78978481 10 15 C9.67 23.91 9.34 32.82 9 42 C6.03 42 3.06 42 0 42 C0 28.14 0 14.28 0 0 Z " fill="#334E61" transform="translate(52,243)"/>
<path d="M0 0 C8.91 0 17.82 0 27 0 C27 2.64 27 5.28 27 8 C21.06 8 15.12 8 9 8 C9 10.97 9 13.94 9 17 C14.61 17 20.22 17 26 17 C26 19.31 26 21.62 26 24 C20.39 24 14.78 24 9 24 C9 27.3 9 30.6 9 34 C15.27 34 21.54 34 28 34 C28 36.64 28 39.28 28 42 C18.76 42 9.52 42 0 42 C0 28.14 0 14.28 0 0 Z " fill="#2C485B" transform="translate(164,243)"/>
<path d="M0 0 C-0.33 1.98 -0.66 3.96 -1 6 C-3.84679352 7.02484567 -5.37305381 6.93895483 -8.4375 6.4375 C-12.12880333 5.98418205 -13.75295084 6.3272777 -17 8 C-17 9.32 -17 10.64 -17 12 C-16.03578125 12.38671875 -15.0715625 12.7734375 -14.078125 13.171875 C-12.8018675 13.6973928 -11.52583769 14.22346381 -10.25 14.75 C-9.61578125 15.00265625 -8.9815625 15.2553125 -8.328125 15.515625 C-4.45488738 17.12947401 -1.65438013 18.72712352 1 22 C2.62658475 26.87975425 2.67207072 30.54384678 0.5 35.25 C-3.2737992 39.40117912 -6.95970764 40.70025287 -12.49609375 41.24609375 C-17.66101203 41.37973699 -22.19638937 40.94188515 -27 39 C-28.2077558 35.37673261 -27.54311128 34.35853631 -26 31 C-25.11957031 31.16757812 -24.23914063 31.33515625 -23.33203125 31.5078125 C-22.17058594 31.71148437 -21.00914062 31.91515625 -19.8125 32.125 C-18.66394531 32.33382812 -17.51539063 32.54265625 -16.33203125 32.7578125 C-12.85876773 33.01026542 -11.06623473 32.5591024 -8 31 C-8.0055593 28.58471137 -8.0055593 28.58471137 -9 26 C-11.83897958 24.21973138 -11.83897958 24.21973138 -15.3125 22.9375 C-20.41234064 20.8758623 -24.451596 19.096808 -27 14 C-27.37593152 9.01890741 -27.1765161 5.94326136 -24 2 C-16.673153 -3.1287929 -8.19665528 -3.45122328 0 0 Z " fill="#385366" transform="translate(242,244)"/>
<path d="M0 0 C11.88 0 23.76 0 36 0 C36 2.31 36 4.62 36 7 C31.38 7 26.76 7 22 7 C22 18.22 22 29.44 22 41 C19.36 41 16.72 41 14 41 C14 29.78 14 18.56 14 7 C9.38 7 4.76 7 0 7 C0 4.69 0 2.38 0 0 Z " fill="#274358" transform="translate(258,243)"/>
<path d="M0 0 C17 0 17 0 22 4 C23.86011115 7.72022229 23.58206663 11.95030238 23 16 C21.58655585 18.52047733 20.12439088 19.98182867 18 22 C18.44988281 22.48984375 18.89976562 22.9796875 19.36328125 23.484375 C21.58283322 26.89581048 22.29382585 30.31366096 23.1875 34.25 C23.36474609 34.99507813 23.54199219 35.74015625 23.72460938 36.5078125 C24.15834193 38.33652271 24.58034597 40.16800779 25 42 C23.35 41.67 21.7 41.34 20 41 C19.75765625 40.02417969 19.5153125 39.04835938 19.265625 38.04296875 C18.93046875 36.77066406 18.5953125 35.49835938 18.25 34.1875 C17.76273437 32.29064453 17.76273437 32.29064453 17.265625 30.35546875 C15.90797834 26.756029 15.43272273 25.619745 12 24 C9.36 23.67 6.72 23.34 4 23 C4 29.27 4 35.54 4 42 C2.68 42 1.36 42 0 42 C0 28.14 0 14.28 0 0 Z M4 3 C4 8.28 4 13.56 4 19 C10.79655143 19.47193256 10.79655143 19.47193256 17.125 17.5 C19.38840787 14.48212284 19.80286379 12.62723661 19.5390625 8.90625 C19.07213575 6.67642296 19.07213575 6.67642296 16.5625 4.5 C12.00639493 2.58163997 8.91029634 2.70240628 4 3 Z " fill="#3B505F" transform="translate(360,244)"/>
<path d="M0 0 C3.63 0 7.26 0 11 0 C13.98205588 3.12075615 15 4.68255543 15 9 C14.01 9.66 13.02 10.32 12 11 C12 11.99 12 12.98 12 14 C11.34 14 10.68 14 10 14 C9.67 23.24 9.34 32.48 9 42 C6.03 42 3.06 42 0 42 C0 28.14 0 14.28 0 0 Z " fill="#425A6A" transform="translate(52,243)"/>
<path d="M0 0 C6.93 0 13.86 0 21 0 C21 0.99 21 1.98 21 3 C15.39 3 9.78 3 4 3 C4 7.95 4 12.9 4 18 C9.28 18 14.56 18 20 18 C20 18.99 20 19.98 20 21 C14.72 21 9.44 21 4 21 C4 26.61 4 32.22 4 38 C9.94 38 15.88 38 22 38 C22 39.32 22 40.64 22 42 C14.74 42 7.48 42 0 42 C0 28.14 0 14.28 0 0 Z " fill="#516674" transform="translate(309,244)"/>
<path d="M0 0 C2.64 0 5.28 0 8 0 C8 13.86 8 27.72 8 42 C5.36 42 2.72 42 0 42 C0 28.14 0 14.28 0 0 Z " fill="#284459" transform="translate(22,243)"/>
<path d="M0 0 C1.65 0 3.3 0 5 0 C8.3 5.94 11.6 11.88 15 18 C18.59017892 14.40982108 20.60192747 10.39598552 22.86328125 5.91796875 C25.40492027 1.20060761 25.40492027 1.20060761 28.7578125 0.0703125 C29.49773437 0.04710937 30.23765625 0.02390625 31 0 C29.63378723 4.6932594 27.67580944 8.44057617 25.0625 12.5625 C24.02802734 14.20412109 24.02802734 14.20412109 22.97265625 15.87890625 C21.80242711 17.73041731 20.58896931 19.55742518 19.2890625 21.3203125 C17.39972865 25.24783681 17.4315103 29.00432721 17.3125 33.3125 C17.26125977 34.56643555 17.26125977 34.56643555 17.20898438 35.84570312 C17.12694539 37.89667772 17.0617849 39.94831538 17 42 C15.68 42 14.36 42 13 42 C13.05542969 40.86046875 13.11085938 39.7209375 13.16796875 38.546875 C13.37458253 25.09402246 9.29666203 16.09722854 2.10742188 4.875 C1 3 1 3 0 0 Z " fill="#415768" transform="translate(451,243)"/>
<path d="M0 0 C8.91 0 17.82 0 27 0 C27 0.33 27 0.66 27 1 C18.42 1 9.84 1 1 1 C1 14.2 1 27.4 1 41 C3.97 41 6.94 41 10 41 C10 40.34 10 39.68 10 39 C8.02 39.495 8.02 39.495 6 40 C6 38.68 6 37.36 6 36 C6.66 36 7.32 36 8 36 C7.88601335 34.37419034 7.75844341 32.74932843 7.625 31.125 C7.52058594 29.76761719 7.52058594 29.76761719 7.4140625 28.3828125 C7.20431868 25.82058097 7.20431868 25.82058097 5 24 C4.375 21.375 4.375 21.375 4 19 C4.66 19 5.32 19 6 19 C6.33 18.34 6.66 17.68 7 17 C9.035282 22.85143575 9.16973678 27.80460742 9 34 C15.27 34 21.54 34 28 34 C28 36.64 28 39.28 28 42 C18.76 42 9.52 42 0 42 C0 28.14 0 14.28 0 0 Z " fill="#4E6574" transform="translate(164,243)"/>
<path d="M0 0 C2.64 0 5.28 0 8 0 C8 13.53 8 27.06 8 41 C6.68 40.67 5.36 40.34 4 40 C4.33 39.195625 4.66 38.39125 5 37.5625 C6.20717135 33.26195205 6.17721353 29.43033819 6 25 C4.68 25 3.36 25 2 25 C2 25.66 2 26.32 2 27 C1.34 27 0.68 27 0 27 C0 18.09 0 9.18 0 0 Z " fill="#274357" transform="translate(81,243)"/>
<path d="M0 0 C1.32 0 2.64 0 4 0 C4 12.54 4 25.08 4 38 C9.94 38 15.88 38 22 38 C22 38.99 22 39.98 22 41 C14.74 41 7.48 41 0 41 C0 27.47 0 13.94 0 0 Z " fill="#435A68" transform="translate(414,243)"/>
<path d="M0 0 C0.33 0 0.66 0 1 0 C1 1.65 1 3.3 1 5 C3.10448938 4.85890014 5.2085877 4.71195825 7.3125 4.5625 C9.07013672 4.44068359 9.07013672 4.44068359 10.86328125 4.31640625 C14.02590958 4.1132629 14.02590958 4.1132629 17 3 C17 3.99 17 4.98 17 6 C16.34 6.66 15.68 7.32 15 8 C15.44988281 8.48984375 15.89976562 8.9796875 16.36328125 9.484375 C18.58283322 12.89581048 19.29382585 16.31366096 20.1875 20.25 C20.36474609 20.99507813 20.54199219 21.74015625 20.72460938 22.5078125 C21.15834193 24.33652271 21.58034597 26.16800779 22 28 C20.35 27.67 18.7 27.34 17 27 C16.75765625 26.02417969 16.5153125 25.04835938 16.265625 24.04296875 C15.93046875 22.77066406 15.5953125 21.49835938 15.25 20.1875 C14.76273437 18.29064453 14.76273437 18.29064453 14.265625 16.35546875 C12.90797834 12.756029 12.43272273 11.619745 9 10 C6.36 9.67 3.72 9.34 1 9 C1 15.27 1 21.54 1 28 C-0.32 27.67 -1.64 27.34 -3 27 C-2.01 27 -1.02 27 0 27 C-0.03029297 26.44014404 -0.06058594 25.88028809 -0.09179688 25.3034668 C-0.22869184 22.76485502 -0.36435938 20.22617909 -0.5 17.6875 C-0.54769531 16.80642578 -0.59539062 15.92535156 -0.64453125 15.01757812 C-0.68964844 14.17001953 -0.73476563 13.32246094 -0.78125 12.44921875 C-0.82314453 11.66893311 -0.86503906 10.88864746 -0.90820312 10.0847168 C-1.064518 6.53478946 -0.74933528 3.46567569 0 0 Z " fill="#2E4454" transform="translate(363,258)"/>
<path d="M0 0 C0.66 0.66 1.32 1.32 2 2 C1.9765625 4.3828125 1.9765625 4.3828125 1.625 7.125 C1.45871094 8.49011719 1.45871094 8.49011719 1.2890625 9.8828125 C1.14597656 10.93082031 1.14597656 10.93082031 1 12 C0.34 12 -0.32 12 -1 12 C-1 12.66 -1 13.32 -1 14 C-5.61197065 16.30598533 -12.16894755 15.40581181 -17.0625 14.1875 C-18.5165625 13.5996875 -18.5165625 13.5996875 -20 13 C-21.2077558 9.37673261 -20.54311128 8.35853631 -19 5 C-18.11957031 5.16757812 -17.23914063 5.33515625 -16.33203125 5.5078125 C-15.17058594 5.71148437 -14.00914062 5.91515625 -12.8125 6.125 C-11.66394531 6.33382813 -10.51539063 6.54265625 -9.33203125 6.7578125 C-5.82969713 7.0123784 -4.02743711 6.73632423 -1 5 C-0.10613836 2.45224694 -0.10613836 2.45224694 0 0 Z " fill="#314B5D" transform="translate(235,270)"/>
<path d="M0 0 C1.98 1.65 3.96 3.3 6 5 C6.7425 4.690625 7.485 4.38125 8.25 4.0625 C10.50692176 3.1905075 12.6450153 2.52332993 15 2 C16.19876651 7.44893869 15.91360308 10.22169095 13 15 C11.37536158 15.05395478 9.75021459 15.09277195 8.125 15.125 C6.76761719 15.15980469 6.76761719 15.15980469 5.3828125 15.1953125 C3 15 3 15 1 13 C-2.08888889 6.82222222 -2.08888889 6.82222222 -1.75 3.6875 C-1.19742351 2.44420289 -0.60846174 1.21692349 0 0 Z " fill="#5EB949" transform="translate(120,267)"/>
<path d="M0 0 C-0.66 0.94875 -1.32 1.8975 -2 2.875 C-4.17968457 5.66238955 -4.17968457 5.66238955 -4 8 C-3.34 8 -2.68 8 -2 8 C-1.67 7.34 -1.34 6.68 -1 6 C-0.67 7.32 -0.34 8.64 0 10 C0.94875 10.0825 1.8975 10.165 2.875 10.25 C6 11 6 11 7.4375 12.8125 C8.07816161 15.30396182 7.69793236 16.56997272 7 19 C2.07319446 18.88192841 -1.07695761 18.74997195 -5 15.5625 C-8.17996566 11.488169 -8.1810334 9.15945193 -8 4 C-7 1 -7 1 -5.125 -0.25 C-3 -1 -3 -1 0 0 Z " fill="#2C495C" transform="translate(223,247)"/>
<path d="M0 0 C6.93 0 13.86 0 21 0 C21 0.99 21 1.98 21 3 C15.06 3 9.12 3 3 3 C3 5.413125 3 7.82625 3 10.3125 C3 13.875 3 17.4375 3 21 C3.06532012 22.48342691 3.1391404 23.96649004 3.21875 25.44921875 C3.26386719 26.29677734 3.30898438 27.14433594 3.35546875 28.01757812 C3.40316406 28.89865234 3.45085937 29.77972656 3.5 30.6875 C3.54769531 31.58017578 3.59539062 32.47285156 3.64453125 33.39257812 C3.76231269 35.59509104 3.88082937 37.79756189 4 40 C2.02 40.495 2.02 40.495 0 41 C0 27.47 0 13.94 0 0 Z " fill="#354C5C" transform="translate(309,244)"/>
<path d="M0 0 C2.97 0 5.94 0 9 0 C11.49388574 4.98777148 10.88836125 6.66983248 10 12 C10.66 12 11.32 12 12 12 C12.12375 13.134375 12.2475 14.26875 12.375 15.4375 C12.58125 16.613125 12.7875 17.78875 13 19 C13.66 19.33 14.32 19.66 15 20 C15 20.66 15 21.32 15 22 C14.01 22.33 13.02 22.66 12 23 C12 21.68 12 20.36 12 19 C11.34 19 10.68 19 10 19 C8.98648336 17.34151823 7.98879205 15.67334039 7 14 C6.34 13.443125 5.68 12.88625 5 12.3125 C1.91832599 8.74931443 1.13498235 4.505536 0 0 Z " fill="#5EB84B" transform="translate(105,243)"/>
<path d="M0 0 C1.9375 0.1875 1.9375 0.1875 4 1 C5.25 3.0625 5.25 3.0625 6 5 C5.34 5 4.68 5 4 5 C4 6.65 4 8.3 4 10 C2.68 10.33 1.36 10.66 0 11 C0 11.99 0 12.98 0 14 C-0.66 14 -1.32 14 -2 14 C-2.0825 14.928125 -2.165 15.85625 -2.25 16.8125 C-3 20 -3 20 -5.0625 21.875 C-6.0215625 22.431875 -6.0215625 22.431875 -7 23 C-7.33 22.01 -7.66 21.02 -8 20 C-7.67 19.34 -7.34 18.68 -7 18 C-7.020625 16.88625 -7.04125 15.7725 -7.0625 14.625 C-7.00448314 11.2600219 -6.76786084 9.76228257 -5 7 C-4.34 7 -3.68 7 -3 7 C-2.690625 6.030625 -2.38125 5.06125 -2.0625 4.0625 C-1 1 -1 1 0 0 Z " fill="#5BBB46" transform="translate(159,204)"/>
<path d="M0 0 C1.32 0.33 2.64 0.66 4 1 C3.01 1 2.02 1 1 1 C1 2.65 1 4.3 1 6 C1.66 6 2.32 6 3 6 C3.84096573 10.67203182 3.97206086 14.35570925 3 19 C3 19.66 3 20.32 3 21 C3 27.33333333 3 33.66666667 3 40 C2.01 40 1.02 40 0 40 C0 26.8 0 13.6 0 0 Z " fill="#2A4356" transform="translate(360,245)"/>
<path d="M0 0 C1.32 0 2.64 0 4 0 C4 0.66 4 1.32 4 2 C4.66 2 5.32 2 6 2 C6.33 1.34 6.66 0.68 7 0 C10.52726357 5.87877262 11.60860932 12.34895518 13 19 C11.35 18.67 9.7 18.34 8 18 C7.63648438 16.55367188 7.63648438 16.55367188 7.265625 15.078125 C6.93046875 13.81484375 6.5953125 12.5515625 6.25 11.25 C5.92515625 9.99703125 5.6003125 8.7440625 5.265625 7.453125 C3.98654043 3.96327698 2.82094843 2.34683945 0 0 Z " fill="#324F5A" transform="translate(372,267)"/>
<path d="M0 0 C6.27 0 12.54 0 19 0 C19 1.32 19 2.64 19 4 C11.74 4 4.48 4 -3 4 C-2.01 3.01 -1.02 2.02 0 1 C0 0.67 0 0.34 0 0 Z " fill="#667D8B" transform="translate(312,282)"/>
<path d="M0 0 C0.33 0 0.66 0 1 0 C1.33 5.61 1.66 11.22 2 17 C2.33 17 2.66 17 3 17 C3.33 23.27 3.66 29.54 4 36 C2.02 36.495 2.02 36.495 0 37 C0 24.79 0 12.58 0 0 Z " fill="#274051" transform="translate(309,248)"/>
<path d="M0 0 C0.66 0.33 1.32 0.66 2 1 C2.40729228 3.32156597 2.74438677 5.6568787 3 8 C2.34 7.34 1.68 6.68 1 6 C0.01 6 -0.98 6 -2 6 C-2.99 7.98 -3.98 9.96 -5 12 C-5.66 12 -6.32 12 -7 12 C-7.87867729 15.73437848 -8.08912219 19.16774573 -8 23 C-8.99 22.67 -9.98 22.34 -11 22 C-10.34 20.68 -9.68 19.36 -9 18 C-10.32 18 -11.64 18 -13 18 C-11.59618624 13.74278218 -9.55933627 11.12306156 -6.5 7.875 C-4.08551892 5.29589521 -1.96265593 2.94398389 0 0 Z " fill="#82BD73" transform="translate(161,199)"/>
<path d="M0 0 C5.73842251 -0.20413361 10.60539047 -0.27141454 16 2 C15.67 3.98 15.34 5.96 15 8 C10.99799622 9.60080151 7.95443764 8.29279692 4 7 C6.33214148 5.79371992 8.49642139 4.8345262 11 4 C11 3.34 11 2.68 11 2 C7.37 1.67 3.74 1.34 0 1 C0 0.67 0 0.34 0 0 Z " fill="#475E6B" transform="translate(226,242)"/>
<path d="M0 0 C1.32 0 2.64 0 4 0 C2.42986223 5.96652354 -0.75029782 10.82909025 -4 16 C-5.31174748 13.83947474 -6.06601102 12.56836605 -5.76953125 10.015625 C-4.9157748 7.77938982 -3.91667854 5.80497341 -2.6875 3.75 C-2.27886719 3.04359375 -1.87023437 2.3371875 -1.44921875 1.609375 C-0.73185547 0.81273437 -0.73185547 0.81273437 0 0 Z " fill="#445A66" transform="translate(478,243)"/>
<path d="M0 0 C2.64 0 5.28 0 8 0 C8 12.21 8 24.42 8 37 C7.67 37 7.34 37 7 37 C6.67 25.78 6.34 14.56 6 3 C4.02 3.33 2.04 3.66 0 4 C0 2.68 0 1.36 0 0 Z " fill="#364D5E" transform="translate(22,243)"/>
<path d="M0 0 C1.65 0 3.3 0 5 0 C6.89068242 2.91215849 8.6542729 5.79384541 10 9 C9.3125 12.0625 9.3125 12.0625 8 14 C0 3.89473684 0 3.89473684 0 0 Z " fill="#405867" transform="translate(451,243)"/>
<path d="M0 0 C1.05513852 3.16541556 0.98180557 3.87999518 0.125 6.9375 C-0.05804688 7.60652344 -0.24109375 8.27554688 -0.4296875 8.96484375 C-0.61789063 9.63644531 -0.80609375 10.30804688 -1 11 C-1.33713528 12.33237708 -1.67158636 13.66544638 -2 15 C-3.32 15.33 -4.64 15.66 -6 16 C-6.21278058 11.53160785 -5.59138085 8.17737474 -4 4 C-3.34 4 -2.68 4 -2 4 C-1.34 2.68 -0.68 1.36 0 0 Z " fill="#5EBA49" transform="translate(149,230)"/>
<path d="M0 0 C1.79158489 -0.02696365 3.58328473 -0.04637917 5.375 -0.0625 C6.37273437 -0.07410156 7.37046875 -0.08570313 8.3984375 -0.09765625 C11 0 11 0 13 1 C13 1.66 13 2.32 13 3 C6.8060423 6.15770393 6.8060423 6.15770393 3.125 5.4375 C1 4 1 4 0.3671875 1.91015625 C0.24601563 1.27980469 0.12484375 0.64945313 0 0 Z " fill="#274359" transform="translate(224,243)"/>
<path d="M0 0 C0.66 0.33 1.32 0.66 2 1 C2 6.61 2 12.22 2 18 C1.01 18 0.02 18 -1 18 C-1.02684312 15.18743719 -1.04676188 12.37512759 -1.0625 9.5625 C-1.07087891 8.76005859 -1.07925781 7.95761719 -1.08789062 7.13085938 C-1.0965143 5.08704779 -1.0522815 3.04316098 -1 1 C-0.67 0.67 -0.34 0.34 0 0 Z " fill="#264052" transform="translate(466,266)"/>
<path d="M0 0 C4.95 0 9.9 0 15 0 C15 2.31 15 4.62 15 7 C12.36 6.67 9.72 6.34 7 6 C8.32 5.01 9.64 4.02 11 3 C7.32589215 1.82428549 3.83070817 1.92633254 0 2 C0 1.34 0 0.68 0 0 Z " fill="#2A4455" transform="translate(177,278)"/>
<path d="M0 0 C0.33 0 0.66 0 1 0 C1 12.87 1 25.74 1 39 C-0.32 38.67 -1.64 38.34 -3 38 C-2.51781006 36.74968994 -2.51781006 36.74968994 -2.02587891 35.47412109 C-0.89852185 31.65634601 -0.6813661 28.39025425 -0.5859375 24.4140625 C-0.56657135 23.71227875 -0.5472052 23.010495 -0.5272522 22.28744507 C-0.46792431 20.06675001 -0.42126083 17.84600177 -0.375 15.625 C-0.33677698 14.11065566 -0.29772278 12.59633206 -0.2578125 11.08203125 C-0.16226266 7.38821169 -0.07806063 3.6942353 0 0 Z " fill="#2A3D4B" transform="translate(88,245)"/>
<path d="M0 0 C2.74277578 3.19990508 4.6302836 6.00499382 6 10 C8.97 10.33 11.94 10.66 15 11 C14.67 11.99 14.34 12.98 14 14 C11.03 14 8.06 14 5 14 C4.15973604 12.23244474 3.32801278 10.46082737 2.5 8.6875 C2.0359375 7.70136719 1.571875 6.71523438 1.09375 5.69921875 C0 3 0 3 0 0 Z " fill="#7DB96E" transform="translate(117,271)"/>
<path d="M0 0 C1.65 0 3.3 0 5 0 C5 0.66 5 1.32 5 2 C5.66 2 6.32 2 7 2 C7.12375 3.134375 7.2475 4.26875 7.375 5.4375 C7.684375 7.2009375 7.684375 7.2009375 8 9 C8.66 9.33 9.32 9.66 10 10 C10 10.66 10 11.32 10 12 C9.01 12.33 8.02 12.66 7 13 C7 11.68 7 10.36 7 9 C6.34 9 5.68 9 5 9 C3.98133771 7.34467377 2.98189187 5.67739862 2 4 C1.34 3.67 0.68 3.34 0 3 C0 2.01 0 1.02 0 0 Z " fill="#5EB949" transform="translate(110,253)"/>
<path d="M0 0 C0.33 0 0.66 0 1 0 C1 1.65 1 3.3 1 5 C3.31 5 5.62 5 8 5 C8 5.33 8 5.66 8 6 C6.35 6.33 4.7 6.66 3 7 C3 7.66 3 8.32 3 9 C2.34 9 1.68 9 1 9 C1 15.27 1 21.54 1 28 C-0.32 27.67 -1.64 27.34 -3 27 C-2.01 27 -1.02 27 0 27 C-0.03029297 26.44014404 -0.06058594 25.88028809 -0.09179688 25.3034668 C-0.22869184 22.76485502 -0.36435938 20.22617909 -0.5 17.6875 C-0.54769531 16.80642578 -0.59539062 15.92535156 -0.64453125 15.01757812 C-0.68964844 14.17001953 -0.73476563 13.32246094 -0.78125 12.44921875 C-0.82314453 11.66893311 -0.86503906 10.88864746 -0.90820312 10.0847168 C-1.064518 6.53478946 -0.74933528 3.46567569 0 0 Z " fill="#879BA9" transform="translate(363,258)"/>
<path d="M0 0 C0.66 0 1.32 0 2 0 C0.25192871 5.46737191 -1.65794081 10.75824848 -4 16 C-5.32 14.35 -6.64 12.7 -8 11 C-7.34 11 -6.68 11 -6 11 C-6 9.68 -6 8.36 -6 7 C-5.195625 6.773125 -4.39125 6.54625 -3.5625 6.3125 C-2.716875 5.879375 -1.87125 5.44625 -1 5 C-0.10613836 2.45224694 -0.10613836 2.45224694 0 0 Z " fill="#76BE68" transform="translate(144,251)"/>
<path d="M0 0 C1.32 1.65 2.64 3.3 4 5 C3.360625 5.12375 2.72125 5.2475 2.0625 5.375 C1.0415625 5.684375 1.0415625 5.684375 0 6 C-0.33 6.66 -0.66 7.32 -1 8 C-0.34 8.33 0.32 8.66 1 9 C0.34 9.66 -0.32 10.32 -1 11 C-1.33 11.66 -1.66 12.32 -2 13 C-5.07692308 7.70769231 -5.07692308 7.70769231 -4.6875 4.125 C-4.460625 3.42375 -4.23375 2.7225 -4 2 C-2.68 2 -1.36 2 0 2 C0 1.34 0 0.68 0 0 Z " fill="#405869" transform="translate(67,250)"/>
<path d="M0 0 C2.97 0 5.94 0 9 0 C9.66 1.98 10.32 3.96 11 6 C10.34 6 9.68 6 9 6 C8.67 4.68 8.34 3.36 8 2 C6.68 2 5.36 2 4 2 C4 3.98 4 5.96 4 8 C4.66 8 5.32 8 6 8 C5.34 9.32 4.68 10.64 4 12 C3.3291288 10.3767313 2.66342971 8.75132422 2 7.125 C1.62875 6.22007812 1.2575 5.31515625 0.875 4.3828125 C0 2 0 2 0 0 Z " fill="#7AB56C" transform="translate(105,243)"/>
<path d="M0 0 C1.65 0.33 3.3 0.66 5 1 C4.34 3.31 3.68 5.62 3 8 C3.66 8.33 4.32 8.66 5 9 C2.03 8.505 2.03 8.505 -1 8 C-2.2077558 4.37673261 -1.54311128 3.35853631 0 0 Z " fill="#3E5564" transform="translate(216,275)"/>
<path d="M0 0 C1.953125 0.8671875 1.953125 0.8671875 4 2 C4.75 4.125 4.75 4.125 5 6 C5.66 6 6.32 6 7 6 C7 8.97 7 11.94 7 15 C4.44772349 11.92849245 3.11223296 9.01474376 1.8125 5.25 C1.46832031 4.26515625 1.12414062 3.2803125 0.76953125 2.265625 C0.51558594 1.51796875 0.26164062 0.7703125 0 0 Z " fill="#74B763" transform="translate(110,256)"/>
<path d="M0 0 C0.33 0.66 0.66 1.32 1 2 C1.99 2.33 2.98 2.66 4 3 C3.625 5.9375 3.625 5.9375 3 9 C2.01 9.495 2.01 9.495 1 10 C1 9.34 1 8.68 1 8 C0.01 8.66 -0.98 9.32 -2 10 C-2.99 9.67 -3.98 9.34 -5 9 C-4.0409375 8.443125 -4.0409375 8.443125 -3.0625 7.875 C-0.36141928 5.41947207 -0.31592995 3.55421195 0 0 Z " fill="#546874" transform="translate(379,253)"/>
<path d="M0 0 C0.33 0.66 0.66 1.32 1 2 C1.99 2 2.98 2 4 2 C4.625 3.8125 4.625 3.8125 5 6 C4.01 7.485 4.01 7.485 3 9 C1.68 9 0.36 9 -1 9 C-2.25541557 5.23375329 -1.37061958 3.62811066 0 0 Z " fill="#264357" transform="translate(67,254)"/>
<path d="M0 0 C0.66 0.66 1.32 1.32 2 2 C1.9765625 4.3828125 1.9765625 4.3828125 1.625 7.125 C1.51414063 8.03507812 1.40328125 8.94515625 1.2890625 9.8828125 C1.19367188 10.58148438 1.09828125 11.28015625 1 12 C0.34 12 -0.32 12 -1 12 C-1 12.66 -1 13.32 -1 14 C-1.99 14 -2.98 14 -4 14 C-4 12.68 -4 11.36 -4 10 C-3.34 10 -2.68 10 -2 10 C-1.34 6.7 -0.68 3.4 0 0 Z " fill="#2A4355" transform="translate(235,270)"/>
<path d="M0 0 C0.33 0 0.66 0 1 0 C1.43200679 4.75207471 -0.01510917 7.78210698 -2 12 C-2.66 12 -3.32 12 -4 12 C-4.33 13.65 -4.66 15.3 -5 17 C-5.66 17 -6.32 17 -7 17 C-5.24009216 11.08030998 -2.60305395 5.58365008 0 0 Z " fill="#7CB96F" transform="translate(144,234)"/>
<path d="M0 0 C1.32 0 2.64 0 4 0 C4 0.66 4 1.32 4 2 C4.66 2 5.32 2 6 2 C6.33 1.34 6.66 0.68 7 0 C7.66 0.99 8.32 1.98 9 3 C8.67 3.99 8.34 4.98 8 6 C7.34 5.67 6.68 5.34 6 5 C5.67 5.66 5.34 6.32 5 7 C4.54625 6.21625 4.0925 5.4325 3.625 4.625 C2.11571258 1.96301969 2.11571258 1.96301969 0 0 Z " fill="#607380" transform="translate(372,267)"/>
<path d="M0 0 C4.62 0 9.24 0 14 0 C14 0.33 14 0.66 14 1 C10.37 1 6.74 1 3 1 C3 1.99 3 2.98 3 4 C2.34 4 1.68 4 1 4 C0.67 4.99 0.34 5.98 0 7 C0 4.69 0 2.38 0 0 Z " fill="#415560" transform="translate(258,243)"/>
<path d="M0 0 C1.64826111 2.96687001 2.44271087 5.65626525 3 9 C1.35 8.67 -0.3 8.34 -2 8 C-2 6.68 -2 5.36 -2 4 C-1.34 4 -0.68 4 0 4 C0 2.68 0 1.36 0 0 Z " fill="#576C7A" transform="translate(382,277)"/>
<path d="M0 0 C1.32 0 2.64 0 4 0 C3.375 1.875 3.375 1.875 2 4 C-1.125 5.25 -1.125 5.25 -4 6 C-4 5.34 -4 4.68 -4 4 C-3.34 4 -2.68 4 -2 4 C-1.34 2.68 -0.68 1.36 0 0 Z " fill="#4F6673" transform="translate(238,278)"/>
<path d="M0 0 C1.98 0.495 1.98 0.495 4 1 C4 2.65 4 4.3 4 6 C2.35 6.33 0.7 6.66 -1 7 C-0.67 4.69 -0.34 2.38 0 0 Z " fill="#264356" transform="translate(227,259)"/>
<path d="M0 0 C0.33 0 0.66 0 1 0 C1 2.31 1 4.62 1 7 C-0.98 7 -2.96 7 -5 7 C-5 6.34 -5 5.68 -5 5 C-4.01 5 -3.02 5 -2 5 C-1.7834375 4.0409375 -1.7834375 4.0409375 -1.5625 3.0625 C-1 1 -1 1 0 0 Z " fill="#3F5662" transform="translate(293,243)"/>
<path d="M0 0 C2.64 0 5.28 0 8 0 C7.67 1.32 7.34 2.64 7 4 C6.01 3.67 5.02 3.34 4 3 C1.85744207 3.38932856 1.85744207 3.38932856 0 4 C0 2.68 0 1.36 0 0 Z " fill="#506270" transform="translate(22,243)"/>
<path d="M0 0 C2.64 0 5.28 0 8 0 C7.67 0.99 7.34 1.98 7 3 C5.68 2.67 4.36 2.34 3 2 C3 2.66 3 3.32 3 4 C2.01 4.33 1.02 4.66 0 5 C0 3.35 0 1.7 0 0 Z " fill="#4F626F" transform="translate(81,243)"/>
<path d="M0 0 C0.66 0.33 1.32 0.66 2 1 C2.40729228 3.32156597 2.74438677 5.6568787 3 8 C2.34 7.34 1.68 6.68 1 6 C-2.09926819 6.32198966 -2.09926819 6.32198966 -5 7 C-3.35 4.69 -1.7 2.38 0 0 Z " fill="#8ABA81" transform="translate(161,199)"/>
<path d="M0 0 C0.66 0 1.32 0 2 0 C2 1.65 2 3.3 2 5 C1.01 5 0.02 5 -1 5 C-1.66 6.32 -2.32 7.64 -3 9 C-3.33 8.34 -3.66 7.68 -4 7 C-3.0625 4.375 -3.0625 4.375 -2 2 C-1.34 2 -0.68 2 0 2 C0 1.34 0 0.68 0 0 Z " fill="#3C586B" transform="translate(80,271)"/>
<path d="M0 0 C-0.33 1.32 -0.66 2.64 -1 4 C-1.66 4 -2.32 4 -3 4 C-2.67 5.65 -2.34 7.3 -2 9 C-2.99 9 -3.98 9 -5 9 C-5 6.36 -5 3.72 -5 1 C-2 0 -2 0 0 0 Z " fill="#475F6F" transform="translate(234,276)"/>
<path d="M0 0 C0.33 0.66 0.66 1.32 1 2 C2.66128463 2.35919668 4.32900023 2.68911632 6 3 C8.3125 4.0625 8.3125 4.0625 10 5 C8.4375 5.75 8.4375 5.75 6 6 C3.49713591 4.86915563 1.32992278 3.47860484 -1 2 C-0.67 1.34 -0.34 0.68 0 0 Z " fill="#485C68" transform="translate(218,260)"/>
<path d="M0 0 C0 0.99 0 1.98 0 3 C-0.66 3.66 -1.32 4.32 -2 5 C-2 5.99 -2 6.98 -2 8 C-2.66 8 -3.32 8 -4 8 C-4.6875 5.6875 -4.6875 5.6875 -5 3 C-3.40083326 0.79162689 -2.76966516 0 0 0 Z " fill="#394F60" transform="translate(380,261)"/>
<path d="M0 0 C1.45922693 0.11409593 2.91740598 0.24165544 4.375 0.375 C5.59316406 0.47941406 5.59316406 0.47941406 6.8359375 0.5859375 C9 1 9 1 11 3 C7.37 3 3.74 3 0 3 C0 2.01 0 1.02 0 0 Z " fill="#233C4B" transform="translate(259,247)"/>
<path d="M0 0 C1.98 0 3.96 0 6 0 C6 1.98 6 3.96 6 6 C5.01 5.67 4.02 5.34 3 5 C3.33 4.01 3.66 3.02 4 2 C2.68 2 1.36 2 0 2 C0 1.34 0 0.68 0 0 Z " fill="#374F60" transform="translate(185,244)"/>
<path d="M0 0 C0.99 0.33 1.98 0.66 3 1 C1.625 3.5 1.625 3.5 0 6 C-0.66 6 -1.32 6 -2 6 C-2.33 4.68 -2.66 3.36 -3 2 C-2.01 1.34 -1.02 0.68 0 0 Z " fill="#234156" transform="translate(220,246)"/>
<path d="M0 0 C2.97 0.495 2.97 0.495 6 1 C5.34 2.32 4.68 3.64 4 5 C2.68 4.34 1.36 3.68 0 3 C0 2.01 0 1.02 0 0 Z " fill="#5C6D7A" transform="translate(373,244)"/>
<path d="M0 0 C0.33 0 0.66 0 1 0 C1.39253254 4.44870215 0.15305957 7.14243493 -2 11 C-2.66 11 -3.32 11 -4 11 C-3.52269162 9.5410574 -3.04308958 8.08286504 -2.5625 6.625 C-2.29566406 5.81289062 -2.02882812 5.00078125 -1.75390625 4.1640625 C-1 2 -1 2 0 0 Z " fill="#7ABB6A" transform="translate(149,223)"/>
<path d="M0 0 C1.65 0 3.3 0 5 0 C5.33 1.32 5.66 2.64 6 4 C4.68 4.33 3.36 4.66 2 5 C1.34 3.35 0.68 1.7 0 0 Z " fill="#63747A" transform="translate(451,243)"/>
<path d="M0 0 C0.33 0.66 0.66 1.32 1 2 C0.22265625 4.1640625 0.22265625 4.1640625 -0.9375 6.625 C-1.31777344 7.44226563 -1.69804687 8.25953125 -2.08984375 9.1015625 C-2.39019531 9.72804687 -2.69054687 10.35453125 -3 11 C-4.11987701 7.26707664 -3.76115702 5.52231403 -2 2 C-1.34 1.34 -0.68 0.68 0 0 Z " fill="#8BC17F" transform="translate(150,240)"/>
<path d="M0 0 C2.31 0 4.62 0 7 0 C7 0.99 7 1.98 7 3 C5.02 3 3.04 3 1 3 C0.67 2.01 0.34 1.02 0 0 Z " fill="#394A57" transform="translate(324,282)"/>
<path d="M0 0 C0.66 0.33 1.32 0.66 2 1 C0.25 6.75 0.25 6.75 -2 9 C-2 6.69 -2 4.38 -2 2 C-1.34 2 -0.68 2 0 2 C0 1.34 0 0.68 0 0 Z " fill="#71B664" transform="translate(134,273)"/>
<path d="M0 0 C1.99097846 2.98646769 2.94124926 5.59687262 4 9 C3.01 8.67 2.02 8.34 1 8 C-0.25 5.0625 -0.25 5.0625 -1 2 C-0.67 1.34 -0.34 0.68 0 0 Z " fill="#7BB96A" transform="translate(122,263)"/>
<path d="M0 0 C1.32 0.66 2.64 1.32 4 2 C3.34 2 2.68 2 2 2 C2.33 2.99 2.66 3.98 3 5 C2.34 5 1.68 5 1 5 C1 5.66 1 6.32 1 7 C0.01 6.67 -0.98 6.34 -2 6 C-1.67 5.38125 -1.34 4.7625 -1 4.125 C0.14193235 2.08981656 0.14193235 2.08981656 0 0 Z " fill="#324F63" transform="translate(225,257)"/>
<path d="M0 0 C1.32 0 2.64 0 4 0 C3.34 1.98 2.68 3.96 2 6 C1.67 5.01 1.34 4.02 1 3 C0.01 2.67 -0.98 2.34 -2 2 C-1.34 1.34 -0.68 0.68 0 0 Z " fill="#687781" transform="translate(478,243)"/>
<path d="M0 0 C0.66 0.33 1.32 0.66 2 1 C1.67 2.65 1.34 4.3 1 6 C-0.32 5.67 -1.64 5.34 -3 5 C-2.34 5 -1.68 5 -1 5 C-1.33 3.68 -1.66 2.36 -2 1 C-1.34 0.67 -0.68 0.34 0 0 Z " fill="#264358" transform="translate(228,279)"/>
<path d="M0 0 C2.64 0 5.28 0 8 0 C5.03312999 1.64826111 2.34373475 2.44271087 -1 3 C-0.67 2.01 -0.34 1.02 0 0 Z " fill="#2B4352" transform="translate(313,262)"/>
</svg>
